<?xml version="1.0" standalone="no"?>
<!DOCTYPE svg PUBLIC "-//W3C//DTD SVG 20010904//EN"
 "http://www.w3.org/TR/2001/REC-SVG-20010904/DTD/svg10.dtd">
<svg version="1.0" xmlns="http://www.w3.org/2000/svg"
 width="2048.000000pt" height="2048.000000pt" viewBox="0 0 2048.000000 2048.000000"
 preserveAspectRatio="xMidYMid meet">

<g transform="translate(0.000000,2048.000000) scale(0.100000,-0.100000)"
fill="#000000" stroke="none">
<path d="M7780 19143 c-96 -96 -498 -518 -640 -673 -1707 -1857 -3472 -4529
-4487 -6795 -357 -797 -603 -1479 -806 -2235 -68 -255 -83 -333 -128 -666
l-41 -309 0 -380 c1 -545 27 -1113 67 -1430 21 -164 62 -400 80 -455 8 -25 25
-95 39 -157 115 -514 336 -1092 609 -1588 968 -1762 2741 -2948 4733 -3164
1031 -113 2022 24 2989 411 197 79 592 272 780 382 904 529 1716 1312 2257
2176 468 749 767 1566 892 2440 82 572 78 1248 -10 1800 -30 186 -56 324 -84
445 -12 50 -37 169 -56 265 -47 234 -97 438 -146 590 -51 159 -173 529 -183
553 -7 18 25 18 956 15 1082 -5 1005 0 1174 -82 247 -121 400 -350 412 -616 6
-133 -12 -226 -66 -335 -93 -187 -231 -304 -441 -376 -89 -31 -104 -33 -230
-33 -152 0 -216 13 -340 70 -157 73 -281 196 -367 368 -45 90 -46 93 -54 221
-10 163 -18 193 -63 249 -91 111 -290 100 -382 -21 -73 -96 -92 -304 -44 -488
25 -94 101 -259 164 -353 124 -187 314 -351 520 -448 177 -83 304 -113 511
-121 244 -9 415 27 629 133 299 149 523 404 626 712 79 240 88 456 26 693
-128 488 -520 842 -1036 933 -71 13 -257 16 -1137 20 -579 3 -1057 7 -1062 10
-5 4 -37 75 -70 159 -33 83 -101 248 -151 366 -49 118 -87 218 -83 222 5 3
1035 10 2291 13 1896 6 2297 9 2370 21 424 69 788 333 963 701 86 181 123 341
123 534 0 144 -14 236 -56 370 -229 724 -1065 1079 -1766 749 -139 -65 -227
-125 -340 -233 -116 -111 -192 -211 -260 -343 -67 -131 -99 -230 -113 -357
-17 -151 10 -289 72 -368 90 -113 287 -119 375 -12 46 57 54 89 62 244 7 123
8 128 53 220 131 269 370 432 659 447 126 7 213 -6 323 -49 207 -79 375 -253
437 -453 34 -106 39 -267 11 -376 -54 -217 -192 -384 -396 -484 -136 -66 -178
-74 -445 -80 -129 -3 -1219 -7 -2421 -10 l-2186 -5 -226 452 c-124 249 -291
574 -372 722 -108 199 -143 271 -133 277 7 4 750 8 1652 9 1400 0 1654 3 1740
15 293 44 538 166 741 370 288 290 414 682 345 1077 -66 386 -298 703 -650
887 -529 277 -1172 159 -1573 -288 -119 -133 -215 -301 -268 -470 -27 -84 -37
-266 -20 -360 36 -203 209 -304 378 -220 93 47 125 125 128 314 1 80 5 99 38
175 45 103 133 223 213 291 75 64 238 145 329 164 102 21 263 19 362 -5 258
-62 464 -259 539 -515 27 -93 25 -269 -5 -365 -80 -261 -276 -449 -537 -516
l-99 -25 -1815 -6 c-1773 -6 -1815 -5 -1831 13 -8 10 -69 107 -133 214 -865
1430 -2044 2979 -3150 4140 -414 434 -656 670 -686 670 -13 0 -45 -22 -80 -57z
m162 -720 c69 -66 503 -523 653 -688 887 -976 1759 -2124 2509 -3303 92 -145
165 -266 162 -269 -3 -3 -405 -7 -893 -10 -488 -2 -910 -6 -938 -9 -259 -26
-317 -384 -80 -491 38 -17 108 -18 1139 -23 l1100 -5 29 -50 c159 -268 473
-854 644 -1200 l94 -190 -363 -5 c-355 -5 -364 -5 -416 -29 -133 -60 -191
-219 -126 -349 29 -58 69 -96 134 -126 44 -20 59 -21 520 -21 261 0 480 -2
486 -3 6 -1 24 -32 39 -69 15 -38 51 -120 80 -183 52 -113 205 -485 205 -497
0 -3 -780 -4 -1732 -2 l-1733 4 -50 -27 c-96 -50 -144 -129 -145 -233 0 -108
56 -191 160 -239 58 -26 8 -25 2042 -28 911 -2 1659 -6 1663 -9 13 -14 170
-441 214 -584 54 -176 160 -610 200 -823 22 -114 49 -250 60 -302 69 -324 100
-1098 60 -1490 -5 -52 -16 -158 -24 -235 -22 -214 -128 -776 -175 -929 -82
-263 -198 -582 -265 -728 -283 -609 -480 -951 -754 -1308 -167 -218 -239 -299
-491 -551 -314 -315 -535 -499 -847 -708 -135 -89 -213 -137 -513 -315 -155
-91 -407 -209 -635 -296 -1043 -399 -2191 -485 -3289 -244 -797 174 -1548 517
-2203 1006 -295 220 -666 568 -905 848 -662 777 -1110 1733 -1281 2735 -63
368 -80 578 -98 1244 -14 474 -9 611 31 921 81 631 69 576 264 1194 167 529
281 843 461 1271 665 1579 1750 3450 2974 5125 540 740 1157 1487 1689 2043
190 200 232 237 265 237 10 0 46 -26 79 -57z"/>
<path d="M3805 10002 c-112 -55 -164 -137 -165 -258 -1 -266 311 -390 493
-195 130 139 88 363 -86 453 -27 14 -67 23 -112 25 -62 4 -77 1 -130 -25z"/>
<path d="M3730 8754 c-77 -33 -109 -83 -155 -238 -78 -266 -118 -719 -97
-1097 50 -872 299 -1615 734 -2192 374 -496 989 -973 1478 -1145 232 -82 292
-92 355 -59 89 46 134 172 91 255 -24 47 -79 79 -218 127 -190 65 -447 201
-653 343 -227 158 -487 399 -658 612 -418 522 -672 1173 -728 1864 -13 171 -7
648 11 796 17 143 55 354 84 464 22 86 24 104 14 144 -27 108 -155 171 -258
126z"/>
</g>
</svg>
