<?xml version="1.0" standalone="no"?>
<!DOCTYPE svg PUBLIC "-//W3C//DTD SVG 20010904//EN"
 "http://www.w3.org/TR/2001/REC-SVG-20010904/DTD/svg10.dtd">
<svg version="1.0" xmlns="http://www.w3.org/2000/svg"
 width="2048.000000pt" height="2048.000000pt" viewBox="0 0 2048.000000 2048.000000"
 preserveAspectRatio="xMidYMid meet">

<g transform="translate(0.000000,2048.000000) scale(0.100000,-0.100000)"
fill="#000000" stroke="none">
<path d="M2501 18110 c-55 -12 -87 -32 -111 -73 -36 -59 -32 -68 100 -229 89
-107 323 -436 417 -586 279 -445 565 -1269 893 -2572 132 -525 196 -746 306
-1052 240 -672 462 -1106 777 -1518 311 -406 602 -666 957 -854 466 -246 1131
-383 1690 -347 488 31 761 81 945 171 166 81 315 184 348 239 9 16 17 46 17
66 0 30 -8 45 -39 76 -59 60 -89 55 -215 -29 -213 -144 -318 -184 -596 -227
-245 -37 -718 -51 -930 -26 -703 81 -1220 315 -1637 742 -370 379 -648 818
-880 1389 -174 430 -266 717 -413 1300 -117 467 -184 719 -247 935 -269 929
-469 1438 -710 1808 -36 56 -104 162 -150 235 -45 72 -110 164 -143 204 -33
39 -60 75 -60 81 0 19 470 -15 865 -63 930 -114 1784 -313 2470 -577 396 -152
955 -392 1205 -518 249 -125 706 -390 939 -543 411 -272 843 -681 1083 -1027
189 -271 370 -684 442 -1006 88 -396 46 -837 -123 -1292 -80 -214 -237 -525
-343 -679 -54 -77 -61 -93 -60 -133 0 -57 23 -92 69 -112 43 -17 90 -11 127
18 57 45 212 297 334 544 203 410 279 657 323 1055 15 131 6 431 -16 555 -84
482 -328 1017 -639 1405 -284 354 -722 733 -1159 1004 -559 346 -975 553
-1662 828 -600 241 -878 333 -1399 464 -759 190 -1775 330 -2521 348 -115 3
-230 1 -254 -4z"/>
<path d="M5668 15654 c-34 -18 -58 -62 -58 -104 0 -62 29 -98 174 -217 145
-120 418 -356 656 -567 366 -325 815 -799 1190 -1256 455 -555 954 -1309 1328
-2005 81 -152 365 -715 420 -835 17 -36 49 -105 72 -155 153 -329 407 -1007
474 -1268 32 -121 73 -321 120 -577 8 -47 25 -157 36 -245 11 -88 23 -167 26
-175 3 -8 15 -152 27 -320 27 -377 29 -918 4 -1089 -9 -57 -17 -105 -19 -106
-2 -2 -80 -6 -173 -10 -521 -19 -903 -83 -1295 -217 -197 -67 -247 -89 -550
-235 -480 -232 -744 -327 -1349 -482 -129 -33 -238 -58 -242 -55 -4 2 -10 23
-14 47 -11 69 -54 255 -82 357 -44 161 -179 550 -250 722 -136 329 -514 1055
-788 1513 -60 99 -150 260 -202 358 -51 98 -126 231 -165 295 -39 64 -107 177
-150 250 -43 73 -103 172 -132 220 -30 48 -63 101 -73 117 -15 24 -26 31 -58
33 -22 1 -45 -1 -51 -5 -25 -17 -150 -227 -236 -398 -149 -296 -246 -481 -336
-645 -46 -85 -97 -177 -112 -205 -139 -253 -459 -879 -520 -1015 -103 -231
-195 -484 -284 -780 -29 -96 -109 -426 -155 -635 -109 -500 -149 -1078 -96
-1380 56 -320 164 -615 297 -814 48 -72 50 -76 35 -100 -8 -14 -64 -69 -123
-121 -207 -179 -325 -305 -412 -438 -61 -94 -85 -140 -99 -193 l-17 -69 -701
0 c-482 0 -712 -4 -740 -11 -55 -15 -120 -82 -135 -139 -13 -48 -7 -107 15
-150 20 -40 79 -87 121 -99 25 -7 1675 -12 5008 -16 2734 -3 6834 -7 9112 -10
2998 -4 4154 -3 4192 5 59 13 124 57 152 103 38 61 18 172 -43 236 -66 69 -24
66 -828 69 l-725 3 -33 67 c-49 100 -127 237 -186 327 -100 151 -245 270 -478
392 -83 43 -187 104 -231 135 -121 85 -329 294 -428 428 -201 272 -604 671
-904 896 -193 144 -529 328 -874 477 -339 146 -424 174 -740 237 -499 100
-676 174 -1052 442 -205 146 -315 206 -568 313 -230 97 -455 153 -705 176
-118 11 -601 7 -852 -7 l-111 -7 -7 79 c-19 194 12 652 56 834 27 112 110 384
155 507 19 54 49 136 66 183 16 47 44 114 60 150 16 36 43 98 59 138 120 299
295 602 531 917 194 260 289 366 702 784 328 333 516 489 892 744 292 198 480
294 945 480 343 138 416 171 447 200 35 33 52 71 52 118 0 56 -47 104 -112
114 -40 6 -58 2 -144 -35 -55 -23 -191 -80 -304 -125 -465 -188 -696 -310
-1080 -573 -335 -229 -531 -390 -860 -704 -349 -333 -498 -492 -681 -724 -224
-283 -309 -412 -529 -798 -116 -205 -295 -639 -410 -996 -40 -124 -75 -232
-78 -240 -3 -8 -9 14 -14 50 -31 231 -111 692 -153 877 -76 339 -93 407 -165
638 -18 55 -42 135 -55 178 -12 42 -27 83 -32 90 -6 6 -34 80 -63 162 -186
533 -357 927 -676 1565 -180 359 -287 555 -467 855 -195 326 -315 511 -516
800 -458 658 -1085 1369 -1682 1910 -307 278 -808 715 -870 758 -29 21 -114
22 -151 1z m-1042 -6332 c88 -135 370 -616 436 -742 41 -80 127 -233 190 -341
337 -572 665 -1216 800 -1569 190 -498 281 -866 333 -1350 19 -171 21 -570 5
-710 -27 -242 -86 -467 -158 -610 -171 -341 -473 -596 -888 -749 -387 -142
-895 -156 -1260 -35 -111 37 -243 102 -354 175 -118 78 -328 286 -419 414
-111 158 -224 411 -279 630 -51 201 -57 255 -56 550 0 422 33 661 170 1239
103 438 224 797 377 1120 100 211 385 758 577 1106 59 107 170 319 245 470
144 288 232 450 243 450 4 0 21 -22 38 -48z m7217 -2941 c214 -46 459 -137
662 -245 83 -44 110 -61 325 -208 329 -224 521 -300 1008 -397 353 -71 418
-92 791 -250 262 -112 573 -278 746 -400 72 -50 265 -211 438 -365 114 -101
373 -382 470 -510 147 -192 366 -405 527 -511 52 -34 142 -86 200 -115 189
-95 322 -194 389 -289 45 -66 141 -231 141 -245 0 -9 -14720 1 -14729 10 -8 7
61 128 110 196 27 36 78 93 113 126 55 51 276 240 311 266 9 7 31 -7 73 -43
361 -319 809 -458 1351 -422 102 7 247 23 321 37 341 63 712 238 955 452 153
134 302 341 384 533 124 290 180 811 137 1259 -10 99 -10 137 -2 142 18 12
131 44 323 92 345 87 638 177 843 261 209 85 249 104 520 238 151 75 330 156
397 181 479 179 962 247 1603 226 204 -7 339 -6 525 5 145 7 391 12 585 10
333 -2 336 -3 483 -34z"/>
<path d="M3705 6800 c-73 -30 -94 -124 -41 -179 24 -25 38 -31 72 -31 51 0 99
35 109 79 9 41 -18 97 -57 121 -35 21 -52 23 -83 10z"/>
<path d="M3538 6268 c-37 -29 -145 -309 -183 -473 -62 -269 -60 -608 6 -900
81 -360 281 -818 422 -968 62 -65 123 -53 167 33 22 42 13 74 -48 176 -177
294 -310 673 -357 1012 -40 292 3 659 105 902 46 110 53 135 46 164 -13 52
-116 86 -158 54z"/>
<path d="M17694 13784 c-289 -178 -288 -178 -781 -269 -300 -56 -479 -67
-1528 -95 -499 -13 -861 -37 -1225 -81 -389 -47 -890 -205 -1230 -386 -319
-170 -487 -308 -716 -589 -186 -228 -282 -391 -342 -580 -47 -146 -63 -264
-69 -490 -10 -364 29 -585 111 -635 66 -40 156 -10 177 60 10 32 7 52 -22 152
-33 111 -34 118 -33 299 1 425 81 654 335 970 212 264 397 414 690 563 344
174 736 291 1139 341 417 52 783 72 1545 86 308 5 598 12 645 15 131 9 357 41
668 94 155 26 282 45 282 42 0 -3 -59 -112 -131 -241 -71 -129 -240 -455 -374
-725 -481 -969 -695 -1303 -1059 -1652 -346 -333 -764 -549 -1196 -617 -351
-56 -774 -44 -1204 34 -331 60 -483 106 -571 174 -40 30 -56 36 -97 36 -92 0
-135 -43 -126 -124 12 -107 126 -180 409 -261 585 -169 1098 -214 1599 -139
243 36 477 113 705 229 263 135 451 272 688 504 321 314 520 594 858 1211 63
116 339 664 339 675 0 3 65 135 144 293 151 304 288 561 455 857 55 99 101
190 101 202 0 12 -12 35 -26 52 -37 44 -82 42 -160 -5z"/>
</g>
</svg>
