<?xml version="1.0" standalone="no"?>
<!DOCTYPE svg PUBLIC "-//W3C//DTD SVG 20010904//EN"
 "http://www.w3.org/TR/2001/REC-SVG-20010904/DTD/svg10.dtd">
<svg version="1.0" xmlns="http://www.w3.org/2000/svg"
 width="2048.000000pt" height="2048.000000pt" viewBox="0 0 2048.000000 2048.000000"
 preserveAspectRatio="xMidYMid meet">

<g transform="translate(0.000000,2048.000000) scale(0.100000,-0.100000)"
fill="#000000" stroke="none">
<path d="M9956 18050 c-32 -5 -105 -21 -163 -35 -58 -14 -119 -25 -136 -25
-90 0 -183 -66 -232 -163 -29 -59 -34 -143 -11 -223 10 -36 15 -151 20 -444 3
-217 9 -411 12 -430 7 -42 10 -977 5 -1580 -4 -536 1 -577 87 -666 128 -132
354 -98 438 67 l24 49 4 619 c2 341 7 624 11 630 7 13 24 1 240 -178 83 -68
256 -231 385 -361 212 -212 239 -244 273 -313 44 -87 87 -129 161 -153 94 -31
211 -2 279 69 54 58 71 111 72 217 0 84 -3 101 -26 145 -51 95 -123 181 -328
389 -232 235 -430 412 -704 630 l-188 149 53 46 c113 97 284 271 362 367 142
178 213 339 223 504 7 114 -9 188 -64 300 -54 110 -185 239 -309 303 -147 75
-341 110 -488 87z m171 -543 c52 -20 122 -74 129 -102 9 -38 -1 -64 -54 -146
-57 -86 -201 -244 -212 -232 -4 4 -14 102 -23 218 l-15 209 25 33 c23 29 31
33 72 32 25 0 60 -6 78 -12z"/>
<path d="M7605 18010 c-70 -11 -243 -64 -299 -91 -27 -13 -61 -19 -106 -19
-122 0 -209 -66 -246 -184 -18 -60 -30 -343 -39 -941 -6 -409 -14 -652 -41
-1225 -9 -179 -16 -460 -17 -625 -2 -287 -1 -302 19 -346 28 -59 85 -116 143
-142 64 -29 163 -28 225 2 56 27 127 105 145 157 9 27 16 143 21 374 8 337 26
789 38 954 l7 89 70 -57 c220 -181 423 -397 740 -791 227 -283 306 -362 402
-407 60 -29 78 -33 153 -33 71 0 94 4 141 26 31 15 75 43 97 64 48 42 98 137
108 200 21 142 -97 282 -241 287 -28 1 -56 6 -64 12 -8 6 -75 87 -149 181
-290 364 -563 660 -761 825 -49 41 -90 80 -90 86 -1 6 23 38 52 70 251 282
433 573 486 778 25 95 28 235 6 315 -55 207 -226 364 -465 426 -77 20 -252 28
-335 15z m223 -554 c18 -9 35 -23 38 -30 8 -21 -33 -117 -87 -207 -56 -92
-198 -284 -265 -357 l-42 -47 -8 180 c-4 99 -8 239 -8 310 l-1 130 80 22 c99
28 240 27 293 -1z"/>
<path d="M12340 17968 c-36 -13 -76 -31 -89 -40 -44 -31 -289 -296 -329 -356
-277 -412 -377 -756 -389 -1347 -7 -360 15 -631 78 -930 37 -174 61 -249 111
-347 101 -195 327 -378 537 -434 196 -52 452 -14 648 97 119 68 277 230 387
396 118 180 167 275 221 433 66 193 100 332 130 530 67 452 3 1028 -151 1350
-154 322 -417 573 -670 641 -61 16 -118 22 -249 26 -158 3 -175 2 -235 -19z
m371 -536 c57 -37 159 -148 219 -239 69 -105 104 -198 139 -370 82 -401 63
-762 -60 -1149 -55 -172 -111 -278 -230 -435 -103 -136 -193 -189 -321 -189
-76 0 -116 18 -182 80 -66 62 -87 108 -120 268 -92 436 -94 1037 -5 1377 29
113 71 213 141 340 80 143 135 212 213 270 35 25 69 53 76 61 19 23 81 17 130
-14z"/>
<path d="M14670 17964 c-14 -2 -52 -9 -85 -15 -90 -15 -233 -65 -329 -114
-206 -105 -311 -228 -323 -379 -7 -79 21 -149 83 -206 l43 -40 6 -337 c3 -186
7 -428 10 -538 3 -110 7 -499 10 -865 3 -366 11 -710 16 -765 13 -122 37 -181
96 -236 59 -54 104 -72 184 -73 170 -2 294 143 274 323 -10 84 -12 961 -3 961
4 0 9 -4 13 -10 3 -5 105 -89 227 -187 263 -211 350 -289 649 -580 258 -251
268 -258 393 -251 68 3 80 7 132 43 40 28 67 57 88 95 27 48 31 64 31 130 -1
118 -15 138 -301 420 -254 250 -338 327 -504 461 -234 189 -446 362 -459 375
-13 12 7 35 140 166 222 220 331 359 408 521 123 255 130 467 26 679 -99 199
-290 348 -520 404 -61 14 -259 26 -305 18z m191 -564 c80 -23 149 -94 149
-155 0 -102 -93 -254 -262 -430 -61 -63 -114 -115 -118 -115 -4 0 -10 53 -13
118 -4 64 -16 218 -27 341 -11 124 -17 228 -12 233 25 25 205 31 283 8z"/>
<path d="M5835 17919 c-120 -24 -342 -53 -605 -79 -566 -55 -706 -78 -811
-131 -127 -64 -205 -210 -179 -334 21 -98 112 -187 206 -201 31 -4 44 -10 40
-20 -9 -24 -35 -218 -49 -367 -8 -81 -17 -150 -20 -153 -3 -3 -40 -14 -84 -25
-173 -43 -262 -149 -251 -299 10 -132 109 -230 249 -247 l51 -6 -8 -196 c-11
-264 -8 -597 6 -717 14 -114 39 -219 74 -304 132 -328 478 -526 841 -480 362
45 947 395 1066 636 30 61 34 78 34 149 0 90 -14 126 -73 188 -41 42 -123 77
-182 77 -80 0 -145 -35 -252 -137 -152 -144 -359 -270 -548 -333 -169 -57
-307 -22 -366 93 -30 58 -45 163 -51 362 -5 180 9 627 23 746 l6 47 96 27
c158 44 591 183 676 217 149 59 219 142 219 257 0 72 -28 135 -80 182 -76 68
-158 79 -288 36 -75 -24 -230 -64 -478 -122 -60 -14 -111 -25 -114 -25 -4 0
-2 62 3 138 12 192 10 263 -10 311 -12 32 -13 42 -4 45 7 3 82 12 166 21 310
33 898 152 992 200 108 56 158 167 130 286 -15 63 -64 120 -132 155 -59 30
-158 31 -293 3z"/>
<path d="M8140 12859 c-248 -8 -1462 -40 -4505 -119 -905 -24 -1156 -34 -1206
-49 -60 -18 -103 -53 -128 -105 l-24 -49 22 -901 c12 -495 23 -946 25 -1001 2
-119 20 -164 79 -203 38 -26 49 -27 191 -32 l151 -5 -3 -55 c-1 -30 -7 -143
-12 -250 -39 -788 26 -1857 171 -2795 414 -2675 1435 -4907 2504 -5472 l90
-47 140 2 c77 1 606 16 1175 32 569 16 1215 34 1435 40 220 6 447 13 504 16
l103 6 35 77 c20 42 238 490 486 996 247 506 508 1039 579 1184 70 145 133
283 140 308 23 94 -31 206 -123 253 -27 14 -608 140 -645 140 -9 0 -1 43 61
302 36 150 104 433 151 628 47 195 98 409 114 475 41 173 125 524 150 634 24
103 22 148 -10 211 -11 21 -228 260 -482 531 -255 271 -487 520 -517 552 -64
69 -71 42 68 276 477 805 628 1063 649 1110 20 44 24 64 19 111 -2 31 -13 72
-22 90 -10 19 -156 221 -324 449 -169 229 -349 472 -399 541 -51 69 -90 129
-88 135 2 5 142 213 311 460 169 248 318 473 331 500 31 66 31 134 0 200 -17
37 -116 147 -389 431 -201 210 -374 385 -384 388 -33 13 -136 14 -423 5z m138
-376 c3 -10 -21 -13 -95 -13 -180 -1 -232 -26 -252 -122 -7 -30 -11 -217 -11
-484 l0 -435 -267 -269 -268 -269 -330 -6 c-181 -4 -350 -7 -375 -8 -30 -1
-45 2 -45 10 0 7 49 74 109 148 l108 135 47 0 c113 0 209 91 219 205 16 191
-211 307 -361 184 -46 -38 -70 -91 -77 -166 l-5 -63 -185 -229 c-153 -191
-190 -231 -215 -235 -16 -3 -462 -17 -990 -31 -528 -14 -1042 -28 -1142 -31
-136 -5 -183 -4 -183 5 0 6 77 92 171 191 l172 179 71 5 c39 3 431 11 871 17
917 12 981 15 1024 50 16 13 268 285 559 604 291 319 540 590 553 602 23 21
36 22 329 31 406 12 562 11 568 -5z m-1234 -22 c3 -4 -155 -183 -350 -397
-196 -214 -397 -435 -447 -491 -55 -61 -104 -105 -122 -111 -18 -7 -352 -15
-840 -22 -1094 -15 -1056 -14 -1086 -31 -14 -8 -74 -66 -132 -129 -58 -63
-188 -200 -289 -303 l-183 -188 -445 -13 c-320 -9 -448 -10 -456 -2 -14 13
-30 556 -17 557 4 0 73 1 153 2 116 2 151 6 177 20 26 14 88 110 324 504 160
269 299 495 308 504 14 15 67 18 416 28 220 6 456 11 525 11 l125 0 120 -115
c66 -64 137 -124 157 -135 45 -24 83 -25 416 -8 192 9 247 9 260 0 81 -59 186
-71 268 -29 60 30 77 49 105 111 24 55 22 109 -7 170 -10 20 -16 38 -13 40 9
9 349 19 349 10 0 -19 -412 -464 -433 -469 -12 -2 -267 -11 -567 -20 -300 -8
-630 -18 -735 -21 l-190 -7 -52 33 c-99 61 -208 49 -277 -31 -57 -68 -66 -148
-26 -229 23 -45 44 -64 100 -89 81 -37 161 -24 231 38 l44 38 545 17 c997 31
1002 32 1041 48 25 11 125 114 339 349 167 184 307 339 312 344 14 16 343 31
352 16z m-1424 -45 c0 -8 -8 -17 -17 -20 -10 -2 -129 -10 -265 -17 -236 -12
-249 -12 -268 6 -11 10 -17 21 -14 24 5 6 212 14 462 19 83 2 102 -1 102 -12z
m-2276 -55 c7 -10 -439 -760 -463 -779 -12 -10 -39 -12 -111 -7 -52 4 -98 10
-102 14 -9 9 -26 744 -18 754 4 5 124 12 266 16 387 12 422 12 428 2z m5330
-285 c80 -85 146 -160 146 -168 0 -8 -138 -217 -306 -464 -169 -247 -313 -466
-322 -486 -19 -47 -36 -50 -271 -46 l-174 3 184 189 c101 103 193 205 204 225
19 34 20 57 23 446 1 226 4 420 7 433 5 22 7 22 184 22 l178 0 147 -154z
m-311 -1558 c19 -24 162 -216 317 -428 156 -212 294 -398 307 -413 13 -16 23
-37 23 -46 0 -10 -93 -175 -206 -367 -506 -857 -573 -972 -584 -1013 -16 -59
-4 -130 29 -183 16 -24 253 -282 527 -573 274 -292 511 -545 525 -562 l26 -31
-38 -164 c-21 -89 -81 -343 -134 -563 -299 -1244 -355 -1483 -355 -1520 0 -90
53 -176 133 -213 23 -12 128 -37 232 -57 304 -57 345 -67 345 -81 0 -15 -69
-160 -320 -669 -95 -192 -205 -417 -245 -500 -40 -82 -148 -303 -240 -490 -92
-187 -175 -359 -185 -381 l-18 -42 -144 -6 c-116 -5 -1331 -40 -1656 -48 -45
-1 -86 2 -91 8 -4 5 -16 234 -25 509 -9 275 -19 529 -22 565 l-6 65 753 748
c415 411 756 747 760 747 6 0 32 -57 249 -549 l112 -253 14 -405 15 -405 -39
-42 c-49 -53 -65 -102 -60 -176 5 -74 40 -129 105 -167 107 -62 238 -24 295
86 48 91 37 178 -32 257 -31 36 -31 36 -51 604 l-11 305 -88 200 c-49 110
-143 324 -211 475 l-122 275 -13 485 c-7 267 -20 874 -29 1350 -8 476 -18 880
-21 898 -3 18 -17 47 -32 64 -26 28 -35 31 -122 40 -52 6 -99 14 -103 18 -5 4
-22 468 -38 1031 -16 563 -32 1159 -37 1324 -6 188 -5 305 1 312 6 9 59 13
176 16 91 1 196 4 233 5 l67 2 34 -42z m-767 11 c7 -11 12 -192 59 -1869 22
-757 30 -950 41 -972 21 -41 68 -61 164 -67 l85 -6 2 -40 c2 -22 10 -359 18
-750 8 -390 20 -941 27 -1224 l11 -515 -831 -825 c-702 -698 -833 -832 -841
-864 -9 -36 -4 -278 19 -840 5 -136 10 -281 10 -321 l0 -74 -52 -5 c-29 -4
-191 -9 -359 -13 l-306 -7 -7 299 c-3 165 -8 544 -11 844 l-6 545 193 201
c867 902 1616 1692 1633 1722 21 39 20 76 -30 1142 -8 168 -19 418 -25 555
-11 274 -15 312 -32 350 -6 13 -95 100 -197 193 -984 891 -1737 1577 -1743
1587 -8 14 -29 885 -22 897 9 14 194 10 199 -4 3 -7 11 -174 18 -370 12 -334
14 -359 33 -385 21 -29 223 -220 830 -783 518 -482 514 -477 514 -517 0 -93
77 -181 180 -204 81 -18 191 35 230 111 82 160 -29 335 -208 329 l-61 -2 -93
86 c-51 47 -336 312 -633 589 l-540 503 -6 140 c-4 77 -8 226 -10 330 l-4 190
139 8 c76 5 142 5 147 0 4 -4 11 -134 15 -289 l7 -280 -28 -42 c-90 -136 7
-315 171 -315 136 0 236 139 194 269 -7 21 -32 59 -56 84 l-43 46 -7 266 c-7
256 -6 266 12 271 10 3 164 9 340 12 l321 7 8 -372 c7 -371 7 -372 -14 -399
-60 -74 -72 -166 -31 -241 65 -116 218 -144 317 -57 91 80 97 204 13 299 l-39
45 -3 364 -3 364 85 6 c152 10 199 9 206 -2z m-2442 -151 c3 -50 6 -177 7
-282 2 -363 13 -587 32 -626 10 -21 92 -103 199 -200 100 -91 428 -388 728
-660 300 -272 646 -587 770 -698 124 -112 230 -211 237 -220 8 -11 16 -104 22
-257 6 -132 15 -334 21 -450 18 -380 39 -837 45 -990 l6 -150 -272 -285
c-1381 -1442 -1548 -1620 -1560 -1661 -10 -32 -10 -209 -2 -827 7 -448 8 -791
3 -796 -13 -13 -87 49 -235 198 -940 949 -1756 3263 -1999 5671 -58 572 -81
1085 -72 1600 6 361 20 653 32 664 6 7 1195 41 1205 35 10 -6 18 -101 29 -339
24 -503 28 -549 45 -593 20 -49 42 -70 438 -417 250 -219 287 -255 298 -290
30 -107 70 -160 141 -189 117 -49 258 25 286 151 32 142 -78 269 -226 261 -55
-2 -62 0 -98 31 -382 334 -615 547 -618 564 -3 12 -8 87 -11 167 -3 80 -12
258 -19 395 -9 165 -10 254 -4 262 7 9 60 13 177 16 91 1 216 4 277 5 l111 2
7 -92z"/>
<path d="M3599 9392 c-141 -74 -161 -270 -38 -375 42 -37 97 -57 152 -57 32 0
56 -19 249 -193 324 -292 792 -715 1097 -990 183 -165 285 -250 307 -256 19
-5 123 -5 256 0 123 5 302 10 398 11 l175 3 22 -295 c12 -162 22 -325 22 -361
l1 -66 -404 -396 c-331 -325 -410 -397 -432 -397 -82 0 -163 -54 -200 -134
-73 -156 33 -320 207 -321 56 0 73 4 115 30 30 19 60 49 79 80 27 43 30 57 30
127 l0 78 90 91 c50 50 234 231 410 402 176 171 328 325 338 342 15 24 17 43
13 100 -3 39 -17 243 -31 455 -14 212 -29 401 -35 420 -5 20 -23 49 -40 65
-36 34 0 33 -500 15 -146 -5 -305 -10 -355 -10 l-90 0 -240 217 c-132 119
-467 421 -745 672 -278 250 -508 460 -513 466 -4 5 -5 27 -1 47 8 50 -18 134
-56 180 -67 81 -182 102 -281 50z"/>
<path d="M10853 12357 c-36 -42 -48 -83 -34 -120 6 -15 57 -80 113 -145 123
-140 542 -668 546 -688 2 -7 -152 -204 -343 -436 -191 -233 -356 -440 -367
-462 -30 -58 -34 -131 -11 -191 11 -27 149 -261 308 -520 405 -660 405 -661
405 -679 0 -8 -198 -292 -439 -630 -242 -338 -447 -630 -457 -647 -9 -18 -19
-60 -21 -94 -5 -54 -2 -66 28 -122 19 -34 239 -321 489 -638 250 -317 461
-584 468 -594 11 -15 -24 -126 -242 -777 -140 -417 -271 -804 -291 -860 l-36
-100 20 -55 c15 -39 67 -111 187 -259 334 -411 394 -488 394 -501 0 -13 -136
-227 -226 -355 -22 -33 -189 -306 -371 -609 -477 -794 -652 -1085 -683 -1130
-93 -138 -92 -258 4 -307 37 -19 71 -22 346 -34 168 -8 508 -20 755 -28 248
-8 1121 -36 1941 -63 l1492 -47 67 27 c138 57 376 238 580 442 929 929 1722
2766 2109 4888 188 1027 264 2017 236 3057 l-5 185 110 5 c61 3 120 11 131 17
36 21 83 81 93 120 6 23 13 394 17 938 6 836 8 903 25 940 28 64 31 89 19 136
-15 55 -72 114 -125 128 -37 9 -1021 45 -4150 151 -649 22 -1333 44 -1520 50
-187 6 -412 16 -500 22 -88 5 -356 13 -595 15 l-436 5 -31 -35z m1895 -377
c398 -14 538 -22 550 -32 8 -7 269 -302 578 -654 363 -412 573 -645 591 -652
16 -5 225 -15 478 -21 248 -7 656 -18 908 -26 l458 -14 44 -39 c53 -47 117
-67 182 -58 169 23 255 216 160 357 -40 59 -99 93 -171 97 -86 6 -131 -11
-187 -69 l-47 -48 -853 26 c-649 20 -859 29 -875 39 -16 10 -605 674 -891
1005 -52 59 -49 61 90 54 67 -3 315 -12 551 -20 311 -11 433 -18 444 -27 8 -7
61 -67 117 -133 124 -145 181 -199 226 -213 19 -6 133 -16 254 -22 121 -5 391
-19 600 -30 803 -42 1472 -76 1680 -85 72 -4 140 -8 153 -11 l23 -5 -7 -577
c-3 -317 -9 -580 -13 -583 -3 -4 -253 2 -556 12 -851 29 -3503 116 -4360 144
-904 29 -1527 55 -1538 65 -4 3 139 186 319 405 179 220 335 417 345 438 11
21 24 37 29 35 5 -2 81 -78 168 -170 l159 -168 5 -79 c6 -96 37 -157 106 -206
37 -25 54 -30 115 -33 111 -5 199 44 239 136 23 52 25 145 5 194 -38 90 -128
148 -232 148 l-60 0 -395 415 c-217 228 -397 420 -399 427 -4 13 135 10 1007
-22z m3787 -130 c677 -23 1240 -43 1253 -46 20 -4 22 -10 22 -79 l0 -75 -52 0
c-52 0 -465 20 -833 40 -290 15 -718 38 -1160 60 -220 11 -441 23 -492 26
l-92 6 -45 48 c-26 27 -46 54 -46 61 0 8 28 10 108 5 59 -3 661 -24 1337 -46z
m-4535 -1789 l145 -6 3 -95 c3 -83 -27 -1595 -46 -2340 l-7 -265 -96 -5 c-170
-9 -179 -24 -179 -319 0 -115 -4 -212 -9 -215 -9 -6 -731 906 -731 924 0 7
196 286 436 621 239 335 444 629 454 652 27 58 25 130 -4 192 -12 28 -134 231
-269 453 -136 222 -247 408 -247 414 0 9 162 6 550 -11z m659 -27 c3 -2 -1
-172 -8 -377 l-12 -372 -33 -35 c-50 -52 -70 -97 -70 -160 0 -121 90 -210 211
-210 149 1 254 154 198 287 -9 20 -27 52 -42 71 l-26 34 13 372 c7 204 15 375
18 380 4 8 200 4 556 -11 l149 -6 -7 -305 c-7 -302 -7 -305 -31 -336 -32 -42
-55 -98 -55 -133 0 -152 159 -256 296 -194 79 36 133 136 118 219 -7 43 -43
109 -74 137 -21 19 -21 21 -15 290 3 148 8 281 11 294 l5 24 120 -5 c66 -3
122 -8 126 -12 8 -7 6 -104 -7 -476 l-9 -265 -48 -44 c-27 -24 -85 -76 -130
-115 -45 -39 -303 -269 -574 -511 -622 -555 -565 -508 -606 -500 -51 9 -133
-19 -175 -59 -47 -46 -68 -94 -68 -158 0 -166 169 -274 315 -201 74 37 115 97
124 183 l6 54 557 496 c817 727 809 719 824 755 9 23 16 133 24 391 6 198 13
378 16 402 l5 42 109 0 c71 0 111 -4 116 -11 4 -7 6 -46 6 -88 -1 -42 -5 -239
-8 -439 l-7 -363 -386 -363 c-212 -199 -648 -608 -967 -909 -320 -300 -592
-563 -605 -583 -26 -43 -24 -10 -64 -949 -39 -914 -40 -974 -18 -1013 16 -28
409 -445 1571 -1665 184 -193 340 -360 348 -372 11 -18 12 -79 4 -385 -5 -201
-14 -549 -20 -775 -6 -225 -14 -413 -18 -417 -8 -8 -747 13 -762 22 -11 7 -8
108 26 801 14 286 14 330 1 360 -9 20 -336 367 -821 869 -444 459 -814 845
-822 857 -14 19 -14 128 -4 990 7 532 15 1101 18 1263 l7 295 91 5 c101 6 133
20 160 73 19 35 21 92 44 1232 6 308 15 722 21 920 5 198 9 433 9 522 0 89 3
169 6 178 6 15 20 16 133 10 69 -4 128 -9 130 -11z m2589 -80 l132 -6 0 -72
c-1 -39 -7 -244 -14 -455 l-14 -383 -28 -28 c-16 -15 -156 -141 -312 -279
l-283 -251 -47 0 c-97 -1 -180 -52 -218 -134 -89 -191 86 -387 286 -321 98 33
164 132 159 237 -2 24 1 49 5 56 6 10 488 443 593 532 85 73 81 46 99 591 9
266 20 488 24 493 11 11 1799 -49 1811 -61 16 -16 31 -580 25 -878 -34 -1450
-282 -2901 -726 -4233 -493 -1483 -1204 -2638 -1902 -3090 -58 -38 -72 -43
-115 -40 l-48 3 3 220 c1 121 9 491 18 821 12 495 13 607 2 632 -12 27 -266
300 -929 992 -113 118 -386 405 -607 638 l-402 423 0 62 c0 34 5 150 10 257 5
107 18 418 29 690 12 272 24 550 27 618 l6 122 316 298 c174 163 436 410 582
547 146 138 445 419 664 625 239 224 404 386 411 405 10 22 15 157 20 495 5
284 11 470 17 477 11 13 29 13 406 -3z m-3456 -5059 l-9 -350 -28 -62 c-16
-35 -31 -63 -35 -63 -7 0 -198 231 -220 267 -11 17 7 79 130 449 79 236 148
438 154 449 15 28 19 -246 8 -690z m378 -817 c118 -123 451 -468 740 -767 289
-299 530 -553 536 -565 8 -15 8 -97 -2 -306 -30 -672 -35 -755 -47 -762 -6 -4
-47 -5 -92 -2 -44 2 -449 16 -900 29 -1127 34 -1535 56 -1535 84 0 9 339 573
354 589 10 10 18 3 43 -31 59 -84 179 -115 268 -69 135 69 164 221 65 343 -21
25 -21 29 -10 200 13 205 -20 134 278 603 119 187 221 356 228 375 7 20 13 59
14 86 0 98 -33 166 -110 222 -89 64 -100 75 -100 94 0 23 37 99 48 99 4 0 104
-100 222 -222z"/>
<path d="M16645 9161 c-111 -28 -184 -120 -185 -232 l0 -57 -477 -420 c-263
-231 -676 -594 -918 -807 -242 -213 -449 -393 -460 -400 -17 -11 -93 -11 -453
0 -416 13 -463 11 -511 -14 -51 -28 -53 -43 -77 -564 -12 -281 -18 -504 -13
-525 6 -29 64 -92 312 -341 167 -168 345 -349 395 -401 l92 -95 -6 -55 c-15
-140 97 -270 232 -270 69 0 120 19 168 62 52 45 78 104 78 178 1 131 -90 227
-226 237 l-61 4 -373 377 -373 377 5 180 c9 269 26 608 31 614 3 2 192 -1 421
-7 351 -9 421 -9 443 3 14 7 150 122 301 256 444 391 1545 1358 1613 1417 32
27 46 32 88 32 127 0 228 101 229 228 0 60 -15 103 -54 149 -47 56 -152 91
-221 74z"/>
</g>
</svg>
