<?xml version="1.0" standalone="no"?>
<!DOCTYPE svg PUBLIC "-//W3C//DTD SVG 20010904//EN"
 "http://www.w3.org/TR/2001/REC-SVG-20010904/DTD/svg10.dtd">
<svg version="1.0" xmlns="http://www.w3.org/2000/svg"
 width="2048.000000pt" height="2048.000000pt" viewBox="0 0 2048.000000 2048.000000"
 preserveAspectRatio="xMidYMid meet">

<g transform="translate(0.000000,2048.000000) scale(0.100000,-0.100000)"
fill="#000000" stroke="none">
<path d="M9985 17396 c-38 -8 -98 -21 -131 -30 -34 -9 -75 -16 -90 -16 -55 0
-105 -21 -144 -60 -76 -76 -99 -154 -76 -253 10 -43 17 -153 22 -362 3 -165
10 -417 14 -560 5 -143 6 -487 3 -765 -8 -880 -7 -914 36 -998 67 -130 247
-162 361 -64 84 71 80 43 84 653 2 297 7 543 10 546 16 17 295 -224 527 -456
173 -172 223 -228 247 -276 55 -111 111 -149 217 -150 58 0 78 5 116 27 50 29
94 85 109 139 6 19 10 63 10 99 0 122 -58 208 -325 476 -211 212 -312 302
-568 507 l-188 151 73 65 c324 287 478 529 478 754 0 154 -50 267 -170 387
-85 85 -172 136 -290 170 -96 27 -234 34 -325 16z m213 -480 c16 -8 44 -30 62
-47 37 -38 36 -56 -13 -137 -44 -74 -188 -228 -197 -210 -4 7 -13 91 -19 185
-13 172 -13 173 10 204 21 30 25 31 74 26 29 -3 66 -12 83 -21z"/>
<path d="M7905 17351 c-38 -11 -101 -31 -140 -46 -41 -16 -103 -30 -148 -34
-63 -6 -85 -13 -119 -37 -52 -36 -84 -98 -97 -184 -6 -36 -15 -324 -21 -640
-6 -316 -18 -717 -26 -890 -29 -636 -38 -1020 -25 -1083 16 -76 61 -134 131
-170 47 -24 64 -28 116 -25 113 7 203 87 224 197 5 29 10 131 10 225 0 94 5
263 10 376 5 113 12 289 16 393 4 103 11 187 15 187 18 0 192 -156 314 -281
131 -134 220 -238 438 -510 194 -243 277 -307 406 -317 79 -5 130 7 193 47 89
56 147 174 133 267 -14 99 -109 183 -212 189 l-48 2 -108 134 c-299 368 -552
643 -710 769 -31 25 -56 49 -57 54 0 4 23 34 52 65 131 143 290 371 358 512
112 234 105 440 -19 602 -58 76 -156 144 -259 182 -68 25 -94 28 -217 31 -114
3 -153 0 -210 -15z m265 -466 c21 -11 30 -23 30 -40 0 -35 -49 -137 -106 -222
-62 -90 -214 -283 -224 -283 -4 0 -10 80 -14 178 -4 97 -9 213 -12 258 l-6 81
28 11 c103 42 241 50 304 17z"/>
<path d="M12093 17331 c-55 -20 -143 -76 -143 -91 0 -5 -41 -51 -91 -102 -102
-104 -170 -201 -258 -368 -153 -292 -212 -584 -212 -1040 0 -415 61 -806 156
-1006 88 -183 287 -348 482 -398 77 -20 239 -21 332 -1 232 48 419 199 592
475 108 172 138 240 205 463 60 200 85 363 91 588 8 286 -23 538 -92 767 -55
177 -174 371 -311 503 -180 173 -322 229 -576 229 -94 -1 -135 -5 -175 -19z
m303 -457 c44 -21 179 -165 223 -238 79 -131 125 -322 143 -589 17 -250 -10
-463 -92 -719 -57 -178 -183 -382 -292 -471 -45 -37 -132 -67 -193 -67 -70 1
-180 82 -211 157 -23 55 -61 235 -80 388 -26 196 -26 612 0 774 22 141 46 237
80 321 34 84 117 232 164 295 42 56 178 164 205 165 11 0 34 -7 53 -16z"/>
<path d="M14030 17310 c-248 -53 -456 -178 -525 -317 -23 -46 -29 -71 -29
-123 0 -75 18 -117 74 -170 l37 -35 12 -830 c6 -456 11 -927 11 -1045 0 -228
11 -360 36 -419 8 -20 34 -55 57 -79 124 -126 343 -70 391 100 9 32 11 154 6
493 -3 248 -5 451 -5 452 2 4 386 -306 465 -375 41 -37 170 -159 285 -272 116
-113 227 -214 247 -223 118 -55 254 -11 318 103 32 57 34 154 5 215 -18 39
-169 196 -405 421 -113 107 -223 201 -467 397 -67 54 -143 117 -169 141 l-47
42 149 150 c176 175 266 291 334 429 61 125 83 212 84 335 0 162 -58 302 -174
419 -175 178 -427 248 -690 191z m250 -476 c77 -23 130 -77 130 -133 0 -90
-76 -215 -224 -369 -82 -85 -101 -100 -107 -85 -3 10 -9 77 -13 148 -4 72 -13
197 -21 279 -8 83 -13 151 -11 153 7 8 94 21 142 22 28 1 75 -6 104 -15z"/>
<path d="M6505 17300 c-133 -29 -312 -53 -630 -85 -398 -40 -541 -62 -629 -95
-158 -60 -240 -233 -173 -361 29 -55 96 -107 148 -115 22 -4 41 -9 43 -13 2
-3 -2 -37 -9 -76 -7 -38 -18 -133 -25 -210 -7 -77 -16 -149 -20 -159 -4 -13
-27 -24 -73 -36 -123 -32 -191 -91 -217 -189 -27 -101 28 -215 126 -264 17 -9
54 -19 83 -23 l52 -7 -8 -76 c-13 -133 -9 -648 5 -746 16 -107 61 -249 104
-323 75 -132 221 -248 374 -298 82 -27 101 -29 234 -29 142 0 147 1 260 40
198 67 420 190 583 323 89 72 133 124 168 197 83 172 -17 349 -196 349 -80 0
-127 -26 -230 -124 -171 -164 -443 -303 -595 -304 -130 -2 -196 69 -221 234
-12 84 -7 676 7 812 l6 58 72 21 c231 67 590 185 644 211 116 57 168 152 142
259 -32 132 -164 191 -311 140 -58 -21 -189 -54 -374 -97 -60 -14 -118 -27
-129 -30 -18 -6 -18 1 -11 163 5 125 4 180 -6 211 -7 23 -10 44 -8 47 3 2 68
11 144 20 320 37 806 139 881 185 100 62 130 174 77 281 -38 73 -97 110 -185
115 -35 1 -81 -1 -103 -6z"/>
<path d="M7580 12870 c-564 -16 -1387 -38 -1830 -49 -443 -12 -1041 -28 -1330
-36 -289 -8 -592 -15 -675 -15 -237 0 -329 -27 -374 -110 l-25 -44 23 -875
c24 -930 21 -900 73 -949 36 -33 80 -42 201 -42 l109 0 -9 -207 c-11 -280 -7
-914 6 -1148 38 -627 105 -1186 212 -1760 396 -2120 1197 -3796 2059 -4309 52
-31 111 -59 130 -63 19 -3 303 1 630 11 327 9 973 28 1435 41 462 13 841 24
843 25 1 0 34 64 71 143 100 207 228 470 401 822 84 171 187 382 230 470 43
88 143 294 224 458 80 164 150 316 156 338 19 69 -13 158 -73 203 -40 31 -81
41 -362 96 -121 23 -224 46 -229 50 -4 5 31 172 79 372 48 199 145 605 216
901 72 302 129 559 129 586 0 31 -8 63 -22 90 -13 22 -104 127 -203 233 -561
596 -705 753 -705 765 0 7 147 262 326 566 180 303 333 566 340 584 18 43 18
115 -1 159 -8 20 -171 247 -361 505 -226 306 -345 476 -342 487 3 9 68 109
145 222 77 113 195 286 262 385 68 99 132 198 144 220 27 51 28 137 3 183 -24
46 -652 701 -683 713 -30 11 9 12 -1223 -21z m978 -307 c3 -10 -21 -13 -97
-13 -120 0 -162 -14 -188 -62 -16 -30 -18 -69 -21 -438 l-3 -404 -229 -231
-229 -230 -253 -8 c-139 -4 -288 -6 -331 -5 l-79 3 98 123 c96 120 98 122 138
122 156 1 248 177 159 303 -40 57 -85 81 -153 82 -110 0 -187 -71 -197 -183
-6 -60 -7 -62 -125 -209 -66 -81 -141 -172 -166 -201 l-47 -54 -1010 -28
c-555 -15 -1012 -26 -1014 -24 -4 3 229 253 282 303 l26 23 518 9 c1084 20
1145 22 1173 44 14 10 77 76 140 145 63 69 281 307 483 528 l368 402 107 1
c59 1 206 5 327 9 281 9 317 8 323 -7z m-1068 -21 c0 -5 -84 -100 -187 -213
-104 -113 -281 -306 -394 -430 l-207 -226 -308 -6 c-170 -4 -541 -10 -824 -13
-343 -5 -524 -10 -541 -18 -15 -6 -112 -101 -215 -210 -104 -109 -218 -230
-254 -267 l-65 -69 -105 0 c-58 -1 -233 -5 -390 -10 -157 -5 -288 -6 -291 -2
-4 4 -9 113 -12 244 l-6 236 137 4 c110 2 142 6 162 21 14 9 142 212 285 450
l260 432 115 6 c63 4 270 10 461 14 l345 7 111 -106 c61 -58 127 -113 147
-121 32 -14 66 -14 259 -5 122 6 237 12 255 15 25 3 48 -4 86 -25 179 -101
381 67 290 241 -12 24 -12 28 2 33 27 10 286 7 282 -4 -1 -5 -83 -97 -181
-205 l-178 -195 -67 0 c-37 -1 -330 -9 -652 -19 l-585 -19 -43 28 c-87 57
-174 47 -241 -26 -101 -108 -34 -280 113 -292 73 -6 99 2 145 43 l38 34 489
16 c854 27 880 28 912 51 22 17 361 382 514 554 39 44 41 45 116 51 123 9 222
10 222 1z m-1243 -38 c5 -15 -56 -22 -277 -30 -165 -6 -187 -5 -199 10 -16 19
-40 17 234 26 248 8 237 8 242 -6z m-1977 -56 c0 -7 -88 -160 -196 -340 l-197
-328 -93 0 -92 0 -6 28 c-2 15 -6 164 -8 332 l-3 305 140 5 c290 12 455 11
455 -2z m4592 -195 c55 -54 117 -119 139 -144 l39 -46 -276 -404 c-151 -222
-277 -414 -280 -426 -3 -12 -12 -24 -19 -26 -17 -7 -339 -12 -345 -5 -3 3 65
78 150 166 85 89 163 178 172 199 15 34 18 79 18 393 0 195 4 360 8 367 5 8
47 13 127 16 66 1 131 4 144 5 18 1 48 -21 123 -95z m45 -1763 c161 -217 292
-399 293 -404 0 -10 -71 -133 -295 -511 -435 -735 -416 -698 -395 -785 7 -27
27 -66 49 -93 33 -40 659 -709 850 -910 l65 -67 -18 -78 c-43 -187 -290 -1217
-392 -1637 -55 -227 -58 -284 -20 -349 41 -71 83 -89 296 -131 276 -54 290
-57 290 -71 0 -6 -66 -146 -146 -310 -80 -165 -174 -357 -209 -429 -35 -71
-155 -317 -267 -545 -112 -228 -215 -438 -227 -467 l-24 -51 -101 -6 c-230
-13 -1530 -46 -1537 -39 -7 8 -39 746 -39 910 l0 91 647 641 c355 353 650 641
655 641 5 0 17 -19 27 -42 11 -24 79 -178 152 -343 l132 -300 14 -355 13 -354
-29 -31 c-41 -43 -61 -88 -61 -137 1 -126 120 -220 238 -188 90 24 147 106
140 200 -4 55 -11 71 -57 130 -18 23 -21 52 -31 375 -6 193 -15 370 -20 395
-4 25 -42 119 -83 210 -41 91 -105 235 -142 320 -37 85 -83 189 -103 230 l-35
75 -12 515 c-7 283 -18 812 -25 1175 -7 363 -16 677 -22 698 -12 51 -50 72
-141 81 -39 4 -75 10 -78 14 -7 7 -73 2253 -67 2294 3 22 6 23 128 29 69 3
163 5 210 5 l84 -1 293 -395z m-933 338 c3 -24 12 -315 21 -648 37 -1448 47
-1755 59 -1780 17 -37 71 -60 143 -60 49 0 64 -4 71 -17 5 -10 12 -189 16
-398 3 -209 13 -689 22 -1067 9 -378 14 -698 11 -711 -4 -12 -319 -333 -713
-722 -517 -512 -712 -711 -725 -741 -20 -44 -19 -96 11 -844 5 -129 6 -238 2
-242 -4 -4 -145 -10 -314 -14 l-308 -7 0 109 c0 60 -5 385 -10 723 -5 337 -6
619 -2 626 4 7 358 380 786 830 429 449 787 826 795 838 19 26 19 78 2 442 -6
138 -18 392 -26 565 -8 173 -20 413 -25 533 -6 121 -16 228 -22 243 -7 14
-104 109 -217 212 -113 103 -493 448 -843 766 l-638 578 0 97 c0 53 -3 228 -7
389 l-6 292 85 0 86 0 5 -32 c3 -18 9 -154 12 -303 4 -148 11 -285 17 -303 7
-25 146 -160 581 -566 315 -293 577 -539 583 -547 6 -8 14 -33 17 -56 12 -95
94 -166 191 -166 61 0 102 19 144 67 59 67 65 157 15 234 -37 57 -90 84 -168
86 l-63 2 -129 119 c-70 66 -166 156 -213 200 -47 44 -234 219 -417 389 -299
277 -332 311 -337 344 -3 21 -8 150 -12 288 l-6 251 118 6 c66 3 123 2 127 -3
5 -4 12 -113 16 -241 l7 -234 -28 -54 c-54 -103 -24 -206 74 -257 40 -21 127
-18 164 5 108 66 124 223 31 296 l-32 24 -7 233 c-3 128 -5 235 -3 237 9 8
570 20 578 12 5 -5 11 -150 14 -324 l6 -314 -26 -34 c-36 -49 -49 -104 -36
-154 37 -138 189 -186 296 -92 83 73 84 183 4 268 l-31 32 0 313 c0 240 3 313
13 317 6 3 62 6 124 6 l112 1 5 -42z m-2122 -408 c4 -212 12 -409 18 -438 13
-62 -87 34 982 -936 l716 -649 6 -96 c3 -53 13 -249 21 -436 9 -187 22 -475
30 -640 8 -165 15 -330 15 -365 l0 -65 -168 -176 c-92 -96 -441 -462 -777
-813 -353 -369 -620 -656 -634 -681 l-23 -44 11 -688 c5 -378 7 -691 3 -695
-10 -10 -151 111 -236 203 -891 962 -1600 3165 -1746 5424 -18 280 -24 880
-11 1165 7 146 15 267 17 270 8 7 1043 34 1050 27 3 -3 10 -81 15 -174 31
-531 37 -620 49 -646 8 -15 154 -151 326 -303 299 -263 312 -277 318 -317 20
-123 156 -193 271 -137 50 24 81 64 97 123 33 124 -84 252 -213 231 -33 -6
-44 3 -314 241 -154 136 -283 253 -286 259 -6 11 -24 292 -35 578 l-7 157 94
4 c52 2 164 3 249 3 l155 -1 7 -385z"/>
<path d="M4531 9895 c-53 -17 -97 -56 -122 -110 -27 -58 -24 -113 9 -176 22
-43 38 -59 81 -81 31 -16 69 -28 91 -28 35 0 73 -33 709 -607 370 -335 691
-618 714 -630 l42 -22 340 14 c193 8 344 10 349 5 9 -9 27 -233 42 -500 l7
-125 -64 -59 c-35 -33 -192 -187 -349 -341 -285 -282 -285 -282 -336 -289
-196 -26 -238 -294 -59 -377 141 -65 289 37 284 194 l-2 63 274 271 c151 149
316 310 366 358 68 63 94 95 98 118 4 18 -1 129 -9 247 -8 118 -21 294 -27
390 -12 188 -23 229 -64 256 -25 16 -50 17 -417 5 l-390 -13 -26 25 c-15 13
-308 278 -652 587 l-625 564 -6 70 c-3 39 -10 80 -17 92 -20 37 -89 92 -129
103 -47 13 -57 13 -112 -4z"/>
<path d="M10812 12465 c-36 -30 -56 -82 -44 -114 4 -12 53 -74 109 -139 145
-168 463 -573 463 -589 0 -8 -130 -173 -290 -368 -159 -194 -300 -369 -314
-389 -32 -47 -42 -115 -26 -169 6 -23 151 -270 322 -549 197 -322 307 -512
302 -520 -4 -7 -180 -255 -391 -550 -210 -295 -387 -548 -393 -563 -17 -44
-12 -132 9 -173 11 -20 151 -203 311 -407 467 -592 530 -673 530 -684 0 -12
-425 -1283 -469 -1400 -48 -131 -64 -100 267 -510 122 -151 222 -280 222 -288
0 -14 -122 -210 -170 -273 -31 -41 -141 -218 -297 -480 -175 -296 -613 -1021
-642 -1065 -86 -128 -83 -234 7 -273 41 -17 322 -32 972 -52 195 -6 686 -21
1090 -35 404 -13 992 -32 1305 -41 661 -21 598 -28 770 87 953 638 1816 2435
2204 4594 145 807 209 1583 199 2398 l-5 377 86 0 c108 0 155 23 188 90 22 45
22 46 28 835 6 748 8 792 26 837 25 62 24 108 -4 149 -37 55 -78 77 -160 83
-39 3 -614 24 -1277 46 -3749 126 -3698 124 -4080 140 -129 5 -366 12 -526 15
l-291 6 -31 -26z m1513 -335 c512 -18 583 -23 602 -38 12 -9 221 -244 463
-522 243 -278 466 -530 496 -560 l54 -55 273 -7 c149 -4 510 -14 801 -23 l529
-15 38 -35 c129 -116 332 -24 332 150 0 53 -26 117 -60 147 -29 27 -105 58
-141 58 -48 0 -101 -25 -147 -70 l-40 -39 -749 24 c-586 18 -751 26 -762 37
-79 80 -791 905 -786 909 5 5 950 -25 959 -30 1 0 54 -61 117 -135 63 -74 132
-144 153 -157 42 -26 -18 -21 818 -64 275 -13 583 -29 685 -35 189 -10 487
-25 710 -36 69 -3 135 -7 148 -10 l22 -4 0 -493 c0 -270 -4 -498 -8 -504 -6
-10 -162 -8 -753 12 -1285 43 -2835 94 -3629 120 -834 27 -1211 44 -1222 54
-5 4 119 162 273 351 155 189 288 358 297 377 9 18 19 32 23 31 5 -2 71 -69
148 -150 l141 -147 0 -58 c0 -71 25 -127 73 -170 132 -116 347 -18 347 157 -1
129 -95 220 -228 220 -41 0 -42 1 -382 356 -187 196 -340 360 -340 365 0 13
97 11 745 -11z m3330 -115 c583 -20 1088 -38 1123 -41 l62 -6 0 -65 0 -66
-127 7 c-71 3 -213 11 -318 16 -438 22 -812 42 -1150 60 -198 10 -432 22 -520
26 l-160 7 -37 39 c-21 21 -38 43 -38 48 0 14 -6 14 1165 -25z m-3825 -1555
c41 0 81 -4 88 -8 10 -7 11 -95 3 -468 -6 -252 -18 -774 -26 -1159 -9 -385
-18 -706 -20 -713 -3 -9 -25 -12 -78 -10 -143 6 -157 -19 -157 -270 0 -100 -4
-183 -9 -186 -8 -5 -606 746 -625 785 -7 14 67 123 365 541 206 287 384 543
397 567 27 54 28 121 3 176 -10 22 -116 199 -235 393 -119 195 -216 356 -216
359 0 4 98 3 218 0 119 -4 251 -7 292 -7z m539 -26 c2 -2 -1 -149 -8 -326
l-12 -323 -28 -30 c-63 -66 -79 -151 -41 -224 87 -172 350 -107 350 86 0 46
-14 82 -52 135 -16 22 -17 46 -7 343 6 176 15 324 19 329 10 11 589 -9 600
-20 5 -5 6 -123 1 -266 -6 -210 -11 -261 -23 -275 -76 -86 -59 -219 34 -280
50 -34 132 -38 188 -9 l35 18 -40 -40 c-22 -22 -238 -217 -480 -432 -396 -352
-442 -390 -466 -385 -37 8 -107 -12 -147 -42 -102 -77 -94 -238 15 -313 65
-44 170 -37 234 17 38 33 57 70 67 132 l7 50 440 392 c242 215 508 452 591
525 83 74 156 146 163 161 9 19 17 140 26 378 7 193 14 351 14 353 2 5 157 1
178 -4 l23 -6 -6 -367 c-3 -201 -7 -375 -9 -387 -4 -17 -435 -426 -1558 -1479
-77 -72 -135 -136 -147 -160 -16 -34 -21 -78 -30 -300 -6 -143 -17 -402 -25
-575 -8 -173 -18 -425 -21 -560 -5 -228 -4 -247 13 -272 17 -24 183 -201 748
-793 605 -634 911 -958 918 -971 5 -8 4 -185 -2 -392 -6 -207 -14 -511 -17
-676 l-7 -299 -316 8 c-173 4 -326 11 -338 16 -21 8 -23 13 -18 56 2 27 9 183
15 348 6 165 13 309 15 321 3 11 5 78 6 149 1 126 0 128 -28 166 -15 21 -335
355 -709 742 -375 387 -688 715 -696 728 -12 21 -14 108 -7 609 15 1257 21
1584 25 1592 3 4 35 8 72 8 80 0 126 23 147 74 11 27 17 142 25 523 12 549 26
1239 35 1658 4 154 8 285 10 291 3 9 35 10 112 7 59 -3 110 -7 112 -9z m1258
-50 c3 -9 1 -154 -5 -323 l-10 -306 -83 -77 c-46 -43 -86 -78 -90 -78 -3 0 4
21 17 47 14 27 24 64 24 87 0 47 -28 113 -59 140 -24 22 -26 56 -14 354 l6
172 104 0 c86 0 105 -3 110 -16z m992 -20 l114 -6 -7 -217 c-3 -119 -9 -296
-13 -395 l-6 -178 -266 -237 -266 -238 -60 -7 c-121 -14 -200 -95 -199 -206 0
-68 31 -128 87 -167 57 -40 154 -44 217 -10 66 35 105 101 105 180 l0 60 280
249 c154 137 288 263 297 281 14 27 19 94 30 449 8 229 17 420 21 424 12 13
1557 -42 1570 -55 9 -9 13 -138 16 -469 3 -452 -4 -674 -35 -1052 -135 -1676
-641 -3421 -1316 -4538 -286 -474 -596 -833 -898 -1041 -64 -44 -80 -51 -123
-51 l-50 0 7 218 c19 679 29 1200 22 1225 -4 18 -143 172 -390 430 -210 221
-588 618 -839 882 l-457 480 0 56 c0 31 7 202 15 380 8 178 22 492 30 698 10
263 19 380 27 392 7 10 173 167 368 350 980 919 1322 1243 1334 1267 10 21 15
126 20 436 4 225 9 413 11 417 5 6 138 4 354 -7z m-3003 -4239 c-6 -372 -9
-450 -23 -482 -8 -21 -19 -49 -24 -62 -8 -20 -11 -21 -26 -10 -34 28 -183 222
-183 238 0 9 54 178 120 376 140 420 128 385 136 385 4 0 4 -200 0 -445z m786
-1341 c354 -367 647 -673 651 -680 7 -13 -17 -669 -31 -844 l-7 -85 -105 3
c-58 2 -455 14 -883 28 -910 28 -1189 44 -1203 65 -5 9 296 519 308 519 3 0
16 -15 27 -33 21 -34 75 -70 124 -81 70 -17 179 45 206 117 25 64 8 148 -39
202 -16 18 -16 33 -8 170 7 99 15 160 25 180 9 16 100 163 203 325 103 162
195 310 205 329 23 45 23 142 1 196 -21 49 -50 82 -96 105 -19 10 -44 27 -54
39 -18 20 -18 22 -2 66 10 25 21 45 26 45 5 0 298 -300 652 -666z"/>
<path d="M15780 9658 c-66 -36 -102 -92 -109 -171 l-6 -64 -250 -220 c-957
-843 -1345 -1182 -1361 -1191 -12 -6 -102 -6 -244 -1 -124 4 -299 8 -390 8
-192 1 -221 -8 -239 -76 -10 -38 -41 -661 -41 -821 l0 -84 239 -246 c132 -136
289 -296 349 -356 l110 -109 -5 -56 c-9 -111 74 -214 183 -227 65 -8 115 8
166 54 48 44 68 89 68 157 0 109 -80 195 -189 203 l-59 4 -288 292 c-159 160
-306 309 -327 332 l-38 41 16 334 c8 183 19 337 24 342 4 4 168 3 364 -3 280
-9 361 -9 379 1 23 12 129 105 1167 1018 482 423 528 461 560 461 65 0 114 20
157 65 66 69 77 152 31 237 -49 90 -174 125 -267 76z"/>
</g>
</svg>
