<?xml version="1.0" standalone="no"?>
<!DOCTYPE svg PUBLIC "-//W3C//DTD SVG 20010904//EN"
 "http://www.w3.org/TR/2001/REC-SVG-20010904/DTD/svg10.dtd">
<svg version="1.0" xmlns="http://www.w3.org/2000/svg"
 width="2048.000000pt" height="2048.000000pt" viewBox="0 0 2048.000000 2048.000000"
 preserveAspectRatio="xMidYMid meet">

<g transform="translate(0.000000,2048.000000) scale(0.100000,-0.100000)"
fill="#000000" stroke="none">
<path d="M5820 19283 c-631 -47 -1263 -248 -1792 -568 -111 -68 -135 -89 -143
-126 -10 -45 16 -81 82 -112 107 -50 258 -180 375 -324 211 -259 693 -1007
947 -1469 143 -260 347 -550 571 -815 278 -327 919 -879 1350 -1162 467 -306
976 -457 1600 -474 258 -7 312 -2 346 32 33 33 33 88 -1 119 -25 23 -29 24
-303 29 -284 5 -396 17 -643 67 -376 77 -736 245 -1099 513 -328 242 -724 581
-940 803 -286 294 -528 622 -736 994 -161 290 -440 742 -625 1015 -293 432
-391 550 -586 702 l-85 66 69 40 c355 206 783 361 1223 441 408 74 910 76
1335 5 1432 -239 2611 -1275 2990 -2624 82 -293 113 -502 141 -967 11 -185
-22 -340 -82 -387 -85 -67 -180 13 -579 488 -556 664 -964 1086 -1385 1436
-390 324 -621 491 -905 655 -293 169 -651 339 -950 450 -71 26 -152 57 -178
69 -63 27 -82 26 -112 -4 -27 -26 -34 -80 -15 -116 14 -25 38 -37 198 -98 169
-64 226 -89 501 -218 474 -222 745 -391 1166 -728 288 -231 400 -330 639 -565
300 -295 495 -510 920 -1014 299 -354 406 -463 506 -515 133 -69 209 -66 289
11 134 131 163 256 151 653 -8 242 -25 403 -61 595 -116 607 -394 1192 -803
1687 -107 129 -345 369 -471 474 -636 533 -1408 855 -2239 934 -143 13 -531
18 -666 8z"/>
<path d="M13185 15820 c-38 -5 -110 -14 -160 -20 -111 -14 -351 -62 -454 -91
-137 -38 -289 -99 -479 -191 -324 -157 -440 -237 -661 -453 -178 -174 -260
-270 -346 -405 -184 -289 -285 -597 -285 -870 0 -105 9 -142 42 -177 25 -26
74 -30 104 -9 17 13 19 28 20 153 1 212 44 378 156 603 99 199 186 324 334
479 250 261 364 345 679 501 238 118 345 160 522 206 345 88 703 125 1024 104
148 -9 233 -21 434 -62 353 -70 664 -143 653 -153 -2 -1 -59 -40 -127 -85 -68
-46 -155 -112 -194 -149 -130 -122 -372 -411 -688 -821 -234 -304 -465 -558
-628 -694 -308 -256 -665 -409 -1035 -445 -278 -27 -483 -12 -786 60 -149 35
-160 41 -139 66 190 225 519 566 652 675 55 46 148 124 206 173 184 156 299
240 601 437 459 299 605 369 1054 508 178 54 206 72 206 130 0 70 -61 93 -170
65 -203 -52 -517 -168 -690 -255 -267 -134 -817 -498 -1075 -711 -71 -59 -186
-154 -255 -210 -126 -104 -251 -225 -482 -470 -188 -198 -312 -359 -477 -619
-93 -146 -255 -486 -304 -637 l-45 -138 -5 55 c-3 30 -11 123 -18 205 -18 235
-54 499 -104 760 -19 99 -39 209 -45 245 -13 80 -111 451 -152 580 -42 130
-109 303 -147 378 -34 68 -67 92 -126 92 -51 0 -74 -15 -96 -64 -22 -51 -23
-50 61 -251 161 -385 290 -930 359 -1510 74 -620 76 -1342 5 -1738 l-16 -88
-2932 1 c-3255 1 -3002 6 -3065 -65 -16 -19 -32 -49 -35 -67 -3 -18 -7 -425
-10 -904 l-6 -872 23 -43 c36 -67 77 -83 221 -88 l119 -3 -6 -112 c-4 -61 -12
-192 -18 -291 -16 -237 -16 -1035 -1 -1300 67 -1152 224 -2135 478 -2995 215
-729 485 -1401 751 -1870 94 -164 277 -437 380 -565 169 -211 419 -436 575
-517 l63 -33 3200 1 3200 1 55 23 c140 59 390 271 584 495 343 395 735 1061
1001 1700 254 611 420 1223 560 2066 186 1126 231 1687 222 2780 l-5 617 77 7
c101 10 143 32 172 92 l23 47 -12 565 c-8 376 -9 672 -3 881 7 245 6 322 -4
345 -16 41 -68 83 -108 89 -60 9 -1463 16 -3283 16 l-1811 0 -13 142 c-25 288
10 775 77 1048 47 191 102 343 213 583 101 221 115 245 209 368 l67 85 34 -14
c48 -20 248 -74 400 -108 117 -27 140 -29 350 -28 230 0 339 10 509 46 259 55
548 192 809 385 176 130 459 433 726 778 485 626 648 806 848 938 153 101 255
149 327 155 69 5 101 30 101 78 0 73 -10 79 -265 151 -215 60 -472 120 -815
188 l-235 47 -300 4 c-165 1 -331 -1 -370 -6z m-8176 -5166 c3 -3 -385 -618
-421 -667 -11 -15 -25 -16 -105 -11 l-93 7 0 343 0 344 308 -6 c169 -4 309 -8
311 -10z m1316 -113 c100 -98 128 -121 161 -127 21 -4 152 -4 291 0 l252 6 37
-25 c20 -14 55 -30 78 -36 85 -23 200 30 232 107 20 49 18 123 -6 162 l-20 32
167 0 167 0 -64 -67 c-36 -38 -126 -130 -200 -205 l-135 -138 -671 0 c-597 0
-673 2 -685 16 -33 40 -110 60 -168 44 -80 -21 -141 -98 -141 -175 0 -105 114
-201 213 -179 44 9 98 38 119 63 18 21 21 21 703 21 560 0 692 3 719 14 20 8
141 126 317 310 l284 296 158 0 159 0 -109 -113 c-59 -63 -247 -259 -418 -436
l-310 -322 -615 5 c-338 4 -724 7 -857 9 l-242 2 -274 -273 -273 -272 -405 2
-404 3 -1 210 c-1 116 1 228 3 251 l5 41 143 -1 c137 -1 144 0 168 22 14 13
146 214 293 447 l269 424 469 1 469 0 122 -119z m695 105 c-12 -11 -68 -16
-245 -21 -226 -7 -230 -7 -249 14 l-19 21 264 0 c227 0 261 -2 249 -14z m4875
-538 c285 -304 528 -560 539 -568 18 -13 124 -15 837 -11 631 2 818 0 824 -9
4 -7 28 -25 53 -41 65 -41 149 -41 213 0 65 41 94 91 94 166 0 79 -26 130 -89
173 -41 27 -57 32 -108 32 -74 0 -119 -20 -160 -71 l-31 -39 -768 0 -768 0
-430 458 -430 457 497 3 497 3 84 -93 c140 -154 198 -207 239 -217 20 -5 565
-18 1211 -30 646 -11 1176 -23 1180 -26 5 -6 28 -735 30 -952 l1 -83 -3276 0
c-1938 0 -3274 4 -3272 9 2 5 73 76 158 157 85 81 167 165 182 187 32 46 36
73 43 357 3 118 8 268 11 333 l7 117 336 -1 336 0 327 -322 327 -322 -1 -50
c-1 -85 45 -165 117 -203 41 -21 140 -20 185 2 88 45 124 108 118 207 -3 56
-9 76 -33 110 -41 58 -103 88 -181 89 l-61 0 -346 340 c-190 187 -357 344
-372 350 -39 15 -867 13 -899 -2 -14 -6 -35 -30 -45 -52 -18 -37 -21 -79 -32
-441 l-12 -400 -52 -50 c-29 -27 -138 -132 -243 -232 l-191 -183 -342 0 c-324
0 -341 1 -328 18 8 9 56 67 108 127 l94 110 63 6 c127 11 207 120 175 238 -47
177 -279 202 -361 40 -11 -21 -20 -58 -20 -83 0 -43 -5 -50 -176 -250 l-176
-206 -1041 0 -1042 0 165 166 165 166 850 -7 c810 -6 851 -5 876 12 14 10 106
101 205 203 98 102 302 313 454 470 152 157 298 309 324 338 l49 52 1397 0
1397 0 518 -552z m3193 544 l292 -3 0 -70 0 -70 -212 6 c-306 9 -1803 35
-1968 35 l-140 0 -40 37 c-23 20 -46 45 -51 55 -10 18 13 19 908 16 505 -2
1050 -4 1211 -6z m-9254 -1789 c3 -42 6 -144 7 -227 1 -292 14 -509 31 -541 9
-16 153 -158 321 -314 283 -264 305 -287 311 -324 20 -123 127 -195 241 -162
85 24 135 91 135 180 0 112 -78 188 -193 188 l-59 0 -283 264 -283 264 -6 307
c-3 169 -8 337 -10 375 l-3 67 260 0 260 0 -7 -402 c-6 -302 -5 -415 4 -451
14 -52 -80 41 1197 -1185 273 -262 485 -473 487 -485 3 -12 11 -379 17 -816
l13 -794 -827 -821 c-454 -452 -832 -832 -839 -846 -13 -25 -25 -532 -27
-1172 -1 -172 -5 -278 -11 -278 -18 0 -156 128 -237 221 -211 243 -386 513
-571 886 -746 1495 -1165 3841 -1037 5803 8 124 18 251 21 283 l7 57 537 0
537 0 7 -77z m1119 -75 c4 -83 7 -230 7 -327 0 -151 3 -180 18 -201 9 -15 172
-179 362 -365 190 -187 445 -438 566 -558 l222 -219 4 -50 c17 -177 249 -237
352 -90 43 60 46 126 12 197 -36 73 -91 107 -176 109 l-59 1 -138 135 c-76 74
-321 315 -545 535 l-407 401 -3 292 -3 292 133 0 132 0 0 -250 0 -249 -30 -48
c-102 -161 78 -346 244 -249 103 60 115 221 21 294 l-25 20 0 241 0 241 303 0
302 0 -3 -317 c-2 -220 -7 -325 -15 -339 -7 -12 -23 -41 -36 -65 -100 -181
126 -357 283 -220 72 63 73 195 2 260 l-26 24 0 231 c0 127 3 275 7 329 l6 97
127 0 127 0 7 -372 c4 -205 6 -771 6 -1257 -1 -837 0 -884 17 -903 29 -32 52
-40 132 -47 l76 -6 0 -287 c0 -159 -1 -661 -3 -1117 l-2 -829 -747 -704 c-432
-406 -756 -718 -766 -738 -18 -33 -18 -65 -14 -572 l5 -538 -320 0 -321 0 7
688 c4 378 9 713 12 745 l6 57 829 823 c600 594 832 830 838 853 11 39 -18
1716 -30 1766 -10 39 29 0 -1213 1193 l-479 459 6 171 c4 93 7 270 7 393 l0
222 88 0 89 0 6 -152z m3481 -195 c3 -192 8 -573 11 -848 3 -275 8 -656 11
-847 l6 -348 -71 0 c-90 0 -136 -18 -157 -62 -14 -30 -13 -136 10 -1217 l24
-1184 -64 -171 c-86 -231 -151 -402 -220 -581 l-58 -150 -4 -410 c-3 -390 -4
-410 -22 -428 -76 -70 -68 -209 16 -274 102 -77 256 -27 292 96 19 63 -6 149
-57 195 -21 19 -21 26 -21 390 l0 370 136 361 c75 198 140 363 143 367 4 5
119 -101 256 -234 138 -133 390 -377 560 -542 171 -165 368 -358 439 -427
l130 -127 -3 -469 c-2 -341 -6 -470 -14 -475 -7 -4 -940 -8 -2073 -8 l-2062 0
-7 483 c-4 265 -6 495 -4 512 3 25 117 136 679 667 371 350 680 637 687 637 6
1 22 -27 36 -61 49 -126 196 -485 229 -558 l33 -75 3 -369 2 -370 -29 -30
c-43 -46 -61 -89 -61 -149 0 -150 171 -239 298 -154 90 59 110 194 41 279
l-34 43 -3 390 -4 390 -28 65 c-16 36 -67 160 -113 275 -47 116 -113 278 -147
360 l-62 150 4 1222 3 1221 -24 26 c-24 26 -39 30 -143 41 l-58 6 0 1185 0
1184 744 0 744 0 6 -347z m446 7 c0 -219 -4 -340 -10 -340 -18 0 -68 -80 -75
-119 -10 -60 11 -120 59 -167 46 -47 89 -60 159 -50 81 12 157 102 157 186 0
42 -29 108 -59 134 -21 19 -21 24 -21 358 l0 338 315 0 315 0 0 -270 c0 -270
0 -270 -25 -308 -52 -79 -39 -180 31 -241 85 -75 207 -58 271 38 47 70 38 164
-23 228 l-33 35 -7 259 -7 259 116 0 117 0 0 -334 0 -334 -30 -25 c-16 -14
-269 -253 -561 -531 l-530 -506 -47 0 c-82 -1 -165 -55 -191 -123 -6 -16 -11
-48 -11 -73 0 -135 143 -231 268 -179 73 31 111 86 121 172 l6 53 580 551
c319 303 587 563 595 578 12 21 16 89 18 389 l3 362 103 0 103 0 6 -392 7
-393 -218 -220 c-120 -121 -492 -496 -827 -833 -335 -337 -619 -627 -630 -645
-19 -31 -20 -53 -28 -657 -4 -344 -6 -724 -5 -845 3 -218 3 -221 28 -252 14
-17 331 -331 705 -699 374 -367 764 -751 868 -853 l187 -187 0 -474 c0 -261 3
-573 7 -692 l6 -218 -348 0 -348 0 6 496 c3 314 2 506 -5 524 -6 18 -303 313
-764 760 -684 663 -754 734 -754 763 -1 18 -11 520 -24 1117 -13 597 -21 1088
-19 1093 2 4 38 7 78 7 69 0 77 2 109 31 22 19 38 43 42 64 6 34 -10 1698 -22
2233 l-6 272 121 0 121 0 0 -340z m2400 -64 l0 -405 -265 -253 -265 -253 -61
-6 c-180 -18 -253 -232 -120 -352 50 -45 100 -61 165 -53 107 12 180 99 179
213 l0 63 271 256 c149 141 280 268 291 283 19 25 20 43 23 468 l3 443 804 0
804 0 6 -52 c30 -270 45 -1059 26 -1438 -58 -1180 -257 -2301 -587 -3311 -355
-1087 -837 -1948 -1337 -2387 -153 -135 -211 -172 -267 -172 l-47 0 -6 317
c-4 174 -7 494 -7 712 0 227 -4 411 -10 431 -7 26 -50 75 -167 191 -145 141
-1165 1144 -1481 1454 l-133 130 7 771 7 771 351 354 c192 195 575 580 849
856 l500 501 -8 436 -7 436 241 0 241 0 0 -404z"/>
<path d="M5165 8031 c-126 -58 -155 -228 -57 -327 36 -36 72 -53 131 -62 55
-8 29 15 611 -542 492 -471 793 -756 808 -764 10 -6 170 -9 383 -7 l366 2 6
-118 c4 -65 10 -210 13 -323 l6 -205 -303 -281 c-167 -154 -332 -307 -367
-339 -56 -52 -70 -59 -119 -66 -181 -25 -234 -258 -84 -364 37 -26 51 -30 111
-30 60 0 73 4 112 30 62 45 88 95 88 176 l0 66 324 302 c179 166 349 322 378
347 29 25 59 56 65 69 11 19 10 100 -2 412 -19 470 -19 468 -55 505 l-28 28
-405 0 -405 0 -144 138 c-79 75 -332 317 -563 537 -231 220 -457 435 -502 479
l-83 80 0 63 c0 97 -41 164 -122 198 -50 20 -114 19 -163 -4z"/>
<path d="M14381 8268 c-25 -13 -58 -41 -75 -61 -26 -32 -31 -49 -36 -112 l-5
-74 -380 -357 c-209 -197 -568 -535 -798 -751 l-418 -393 -382 0 c-222 0 -397
-4 -418 -10 -19 -6 -46 -22 -60 -36 l-24 -26 -9 -440 c-6 -320 -5 -450 3 -478
9 -30 70 -93 327 -336 174 -165 335 -316 358 -336 40 -35 41 -38 41 -100 1
-122 80 -215 194 -226 196 -18 308 219 169 358 -42 42 -88 61 -149 62 l-48 0
-346 325 -345 326 6 341 c3 187 7 347 10 354 3 9 87 12 379 12 l376 0 57 53
c31 29 394 370 806 758 851 799 822 773 841 765 28 -11 116 21 152 55 46 44
63 86 63 151 0 105 -77 185 -186 195 -49 4 -66 1 -103 -19z"/>
</g>
</svg>
