<?xml version="1.0" standalone="no"?>
<!DOCTYPE svg PUBLIC "-//W3C//DTD SVG 20010904//EN"
 "http://www.w3.org/TR/2001/REC-SVG-20010904/DTD/svg10.dtd">
<svg version="1.0" xmlns="http://www.w3.org/2000/svg"
 width="2048.000000pt" height="2048.000000pt" viewBox="0 0 2048.000000 2048.000000"
 preserveAspectRatio="xMidYMid meet">

<g transform="translate(0.000000,2048.000000) scale(0.100000,-0.100000)"
fill="#000000" stroke="none">
<path d="M10245 19131 c-81 -20 -135 -73 -155 -151 -15 -61 -61 -2744 -48
-2803 14 -67 52 -115 111 -143 66 -30 108 -30 174 0 61 29 98 78 112 151 5 28
12 232 15 455 7 437 13 831 21 1195 3 127 8 431 11 677 6 408 5 451 -10 492
-35 91 -141 149 -231 127z"/>
<path d="M13132 17303 c-18 -9 -41 -28 -51 -42 -11 -14 -90 -184 -176 -376
-86 -193 -163 -363 -171 -380 -7 -16 -90 -201 -184 -410 -150 -331 -172 -387
-172 -432 -1 -42 5 -59 26 -88 41 -53 72 -69 131 -69 59 0 91 17 128 66 19 27
162 337 437 953 10 22 73 164 141 315 109 242 124 281 123 327 -1 117 -124
189 -232 136z"/>
<path d="M7095 17236 c-65 -28 -105 -107 -91 -178 3 -17 157 -301 342 -632
440 -785 437 -780 477 -805 41 -25 115 -28 156 -6 64 33 101 107 86 173 -5 27
-74 154 -295 547 -40 72 -105 189 -145 260 -263 469 -328 582 -348 603 -44 49
-121 65 -182 38z"/>
<path d="M3907 16795 c-54 -14 -112 -63 -133 -112 -18 -42 -18 -124 0 -167 8
-19 79 -101 158 -183 79 -81 530 -548 1003 -1038 474 -489 883 -914 910 -943
87 -94 163 -124 250 -98 66 20 122 76 141 143 14 48 14 58 -1 109 -15 54 -32
72 -313 363 -366 376 -1114 1150 -1476 1526 -149 154 -295 304 -325 332 -72
70 -134 90 -214 68z"/>
<path d="M16308 16545 c-24 -6 -58 -21 -75 -33 -64 -45 -1951 -1952 -1968
-1989 -39 -81 -12 -194 57 -246 70 -53 156 -57 233 -12 64 37 1963 1949 1986
1999 71 156 -67 323 -233 281z"/>
<path d="M9960 15559 c-1170 -63 -2293 -518 -3190 -1291 -174 -150 -456 -436
-599 -607 -630 -755 -1040 -1665 -1186 -2634 -33 -216 -46 -393 -52 -682 -8
-437 16 -744 88 -1110 259 -1324 986 -2482 2059 -3277 791 -586 1697 -932
2700 -1030 173 -17 790 -17 955 0 558 57 998 162 1495 359 933 368 1767 1020
2356 1843 509 711 829 1508 948 2365 91 656 65 1286 -80 1925 -346 1528 -1358
2835 -2749 3551 -855 440 -1787 640 -2745 588z m690 -394 c630 -55 1179 -206
1735 -474 502 -243 923 -541 1316 -931 722 -718 1191 -1595 1383 -2585 65
-337 91 -659 83 -1030 -28 -1282 -537 -2475 -1442 -3380 -682 -683 -1545
-1147 -2498 -1344 -523 -108 -1067 -129 -1612 -60 -870 110 -1710 460 -2410
1004 -1013 787 -1685 1962 -1854 3240 -63 477 -52 1022 30 1490 314 1791 1579
3262 3299 3835 362 120 744 200 1125 235 197 18 644 18 845 0z"/>
<path d="M3137 13358 c-74 -20 -127 -105 -113 -183 4 -20 22 -53 42 -74 32
-36 93 -62 855 -366 451 -180 837 -329 858 -332 145 -20 236 152 140 262 -27
30 -120 70 -857 363 -455 181 -840 332 -857 334 -16 3 -47 1 -68 -4z"/>
<path d="M17110 13291 c-23 -8 -62 -25 -220 -98 -36 -17 -243 -112 -460 -213
-217 -100 -429 -197 -470 -216 -41 -19 -126 -58 -189 -87 -145 -66 -176 -99
-176 -187 0 -63 16 -95 67 -133 35 -27 108 -33 155 -14 21 8 155 69 298 135
143 65 285 131 315 144 141 65 563 260 635 293 44 20 98 45 120 55 83 36 135
101 135 167 -1 102 -116 186 -210 154z"/>
<path d="M3555 10449 c-341 -10 -954 -27 -1362 -39 -462 -13 -754 -25 -775
-32 -144 -48 -192 -217 -92 -328 19 -21 55 -46 80 -56 46 -17 143 -17 734 2
91 2 406 11 700 19 1567 42 1500 40 1545 59 50 21 82 51 106 98 21 41 25 120
8 165 -18 48 -79 102 -133 118 -57 17 -7 18 -811 -6z"/>
<path d="M16450 10440 c-193 -4 -240 -8 -265 -22 -68 -37 -115 -114 -115 -185
1 -83 70 -171 152 -194 58 -15 2639 -3 2712 13 95 21 166 124 153 221 -8 59
-55 127 -106 154 l-45 23 -1125 -2 c-619 -1 -1232 -5 -1361 -8z"/>
<path d="M4675 8083 c-18 -5 -158 -70 -535 -250 -63 -31 -151 -72 -195 -93
-44 -21 -132 -62 -195 -92 -63 -31 -212 -101 -330 -157 -171 -81 -222 -110
-252 -142 -50 -54 -58 -104 -26 -167 30 -61 76 -92 139 -92 51 0 70 7 254 95
279 134 354 169 430 205 81 38 178 84 425 202 74 35 187 89 250 118 189 89
228 122 237 202 7 57 -15 108 -59 142 -35 26 -103 40 -143 29z"/>
<path d="M15612 8034 c-49 -25 -75 -69 -80 -133 -7 -99 16 -120 288 -265 85
-45 418 -223 740 -394 532 -283 590 -312 633 -312 148 0 220 168 114 267 -38
35 -51 43 -357 205 -292 155 -529 282 -595 317 -482 261 -610 325 -659 328
-34 2 -62 -2 -84 -13z"/>
<path d="M5952 6203 c-33 -18 -411 -360 -1064 -963 -557 -514 -1049 -968
-1093 -1009 -128 -118 -154 -149 -171 -207 -14 -49 -14 -59 0 -107 16 -57 70
-118 119 -136 43 -16 117 -13 162 8 22 10 110 83 195 162 145 133 1489 1375
1625 1499 302 278 481 449 496 474 80 132 -26 306 -187 306 -18 0 -55 -12 -82
-27z"/>
<path d="M14388 6211 c-87 -28 -140 -94 -146 -183 -7 -93 11 -117 292 -389
138 -134 612 -593 1054 -1022 564 -546 816 -784 845 -798 77 -35 180 -16 234
42 59 64 70 166 25 241 -17 30 -221 234 -562 564 -294 285 -762 738 -1039
1007 -277 269 -521 500 -541 513 -40 27 -118 39 -162 25z"/>
<path d="M12453 4989 c-41 -12 -99 -80 -106 -125 -3 -19 0 -54 7 -77 11 -34
379 -866 510 -1151 18 -39 56 -124 86 -189 35 -79 63 -127 86 -146 75 -67 192
-43 242 49 37 70 29 99 -96 370 -16 36 -141 315 -277 620 -136 305 -259 570
-272 588 -13 18 -34 39 -46 47 -30 19 -95 26 -134 14z"/>
<path d="M7919 4980 c-73 -22 -88 -45 -222 -350 -48 -107 -195 -440 -327 -740
-132 -299 -246 -564 -252 -588 -22 -88 43 -179 136 -189 57 -7 122 23 153 69
11 18 96 204 188 413 168 380 288 653 305 690 5 11 55 124 112 250 92 208 102
236 103 290 0 73 -27 118 -89 146 -44 20 -66 22 -107 9z"/>
<path d="M10109 4402 c-45 -23 -59 -37 -83 -85 l-29 -57 12 -928 c6 -510 14
-1125 16 -1367 3 -242 8 -464 10 -493 9 -98 47 -160 120 -193 101 -47 214 -6
268 96 21 39 22 49 19 400 -1 198 -4 479 -7 625 -3 146 -7 472 -10 725 -9 785
-16 1119 -26 1158 -13 48 -63 105 -114 128 -58 27 -113 24 -176 -9z"/>
</g>
</svg>
