<?xml version="1.0" standalone="no"?>
<!DOCTYPE svg PUBLIC "-//W3C//DTD SVG 20010904//EN"
 "http://www.w3.org/TR/2001/REC-SVG-20010904/DTD/svg10.dtd">
<svg version="1.0" xmlns="http://www.w3.org/2000/svg"
 width="2048.000000pt" height="2048.000000pt" viewBox="0 0 2048.000000 2048.000000"
 preserveAspectRatio="xMidYMid meet">

<g transform="translate(0.000000,2048.000000) scale(0.100000,-0.100000)"
fill="#000000" stroke="none">
<path d="M15095 18043 c-347 -42 -686 -151 -987 -319 -313 -174 -631 -425
-853 -673 -55 -61 -104 -111 -109 -111 -9 0 -311 221 -574 420 -180 136 -207
152 -241 143 -39 -9 -48 -17 -201 -181 l-143 -153 -28 23 c-15 13 -83 69 -151
124 -266 218 -473 330 -750 404 -442 118 -946 82 -1438 -102 -1181 -441 -2158
-1623 -2351 -2843 -27 -173 -37 -502 -20 -665 22 -210 82 -446 156 -620 46
-107 171 -330 244 -435 30 -44 101 -127 157 -185 l102 -105 -52 -56 c-219
-240 -216 -237 -216 -276 1 -62 -99 51 911 -1033 212 -228 528 -568 702 -755
174 -186 315 -340 314 -342 -1 -1 -155 -22 -342 -48 -187 -25 -533 -72 -770
-105 -510 -70 -1988 -269 -2061 -277 l-51 -5 -46 68 c-25 38 -82 106 -126 150
-250 250 -626 414 -1046 455 -208 20 -542 -5 -633 -48 -51 -24 -86 -84 -86
-147 0 -40 112 -381 532 -1631 293 -869 540 -1595 550 -1613 41 -79 129 -94
287 -48 445 129 818 529 963 1032 l28 99 1960 -3 c1077 -2 1960 -4 1961 -6 1
-1 -7 -31 -17 -67 -55 -178 -95 -354 -120 -525 -85 -581 -28 -1141 176 -1712
55 -153 218 -489 306 -628 536 -851 1373 -1419 2347 -1594 371 -67 845 -68
1201 -4 1103 200 2023 883 2520 1874 176 351 295 754 346 1170 24 199 24 582
0 775 -79 633 -311 1213 -678 1697 -32 42 -58 81 -58 87 0 5 100 119 222 253
122 134 355 389 518 568 274 300 543 596 1196 1310 364 400 673 739 717 788
48 54 52 107 10 147 -16 14 -172 132 -348 262 -176 130 -491 363 -700 518
-843 625 -1524 1130 -1780 1318 -148 110 -279 208 -290 218 -22 22 -34 2 96
161 511 627 747 1463 593 2101 -151 623 -661 1048 -1373 1142 -95 13 -395 18
-476 8z m587 -376 c551 -144 865 -550 903 -1167 24 -373 -115 -841 -356 -1203
-100 -149 -312 -417 -324 -408 -5 4 -167 124 -360 266 -192 142 -462 342 -600
445 -137 102 -297 220 -355 263 -58 42 -199 147 -315 233 -115 86 -344 255
-507 376 l-298 220 38 46 c48 58 239 233 366 334 54 44 162 121 240 172 351
232 674 372 979 426 162 28 167 28 337 25 127 -2 172 -7 252 -28z m-4936 -327
c374 -31 681 -154 940 -377 30 -26 54 -51 54 -56 0 -4 -33 -43 -72 -85 -99
-106 -361 -388 -1308 -1412 -267 -288 -579 -626 -694 -750 -115 -124 -259
-279 -320 -345 -61 -65 -172 -185 -246 -265 -74 -80 -185 -200 -246 -265 -61
-66 -202 -219 -315 -340 -112 -121 -239 -259 -282 -305 l-78 -85 -70 75 c-196
211 -332 483 -388 774 -72 369 -44 774 80 1181 100 324 273 671 487 974 210
297 516 595 815 792 406 269 918 455 1342 488 148 12 161 12 301 1z m1884
-475 c111 -82 329 -244 485 -360 156 -115 408 -302 560 -415 152 -113 404
-299 560 -415 156 -115 408 -302 560 -415 152 -113 420 -311 594 -440 174
-129 426 -316 560 -415 134 -99 361 -268 506 -375 145 -107 397 -294 560 -415
163 -121 361 -267 439 -325 77 -58 341 -253 586 -435 245 -181 541 -401 659
-488 l213 -159 -34 -36 c-19 -21 -108 -118 -198 -217 -90 -99 -205 -225 -256
-280 -50 -55 -284 -312 -520 -570 -1207 -1324 -1437 -1575 -1446 -1575 -4 0
-43 33 -86 74 -967 926 -2456 1204 -3697 691 -556 -231 -1055 -608 -1420
-1075 -37 -47 -72 -91 -79 -98 -10 -11 -85 65 -397 400 -211 227 -899 965
-1527 1641 l-1144 1229 35 37 c19 20 402 434 853 921 450 487 925 1000 1055
1140 129 140 526 568 880 950 354 383 830 897 1058 1143 271 293 418 444 426
439 7 -4 103 -74 215 -157z m1770 -6674 c1028 -133 1930 -775 2398 -1706 111
-221 175 -392 237 -631 127 -489 130 -1041 10 -1524 -288 -1155 -1166 -2033
-2318 -2314 -260 -64 -412 -81 -742 -81 -327 0 -464 15 -730 80 -1206 295
-2119 1250 -2354 2465 -76 389 -73 827 9 1230 178 884 762 1681 1544 2106 451
246 892 371 1401 398 132 7 400 -5 545 -23z m-9080 -16 c177 -39 269 -82 394
-186 113 -93 192 -184 298 -344 79 -119 103 -141 144 -131 12 3 844 118 1850
256 l1829 251 40 -43 c229 -248 458 -494 748 -805 l346 -372 -74 -143 -74
-143 -213 0 c-645 0 -3652 18 -3875 24 -145 3 -277 3 -295 -1 -52 -10 -58 -28
-57 -165 0 -95 -4 -142 -22 -210 -74 -297 -268 -548 -512 -664 -34 -16 -70
-29 -79 -29 -13 0 -88 215 -374 1078 -572 1724 -545 1640 -520 1646 47 11 373
-3 446 -19z"/>
<path d="M13715 9701 c-83 -21 -149 -88 -160 -165 -4 -24 14 -293 40 -612 62
-762 111 -1354 135 -1664 16 -190 25 -264 39 -295 21 -48 36 -60 341 -301 261
-206 453 -358 780 -619 129 -103 258 -198 285 -211 108 -52 223 -14 271 90 38
82 29 161 -28 228 -19 23 -346 286 -678 546 -340 266 -572 457 -579 475 -5 12
-25 229 -45 482 -129 1613 -154 1892 -171 1926 -29 57 -76 98 -129 114 -54 16
-57 16 -101 6z"/>
<path d="M3435 8748 c-214 -217 -375 -435 -443 -601 -105 -251 -73 -529 75
-669 82 -76 165 -108 284 -108 108 0 152 21 252 120 72 73 94 102 126 171 59
128 73 203 78 434 6 227 -9 364 -57 550 -16 61 -32 129 -35 153 -10 61 -47
102 -93 102 -34 0 -48 -11 -187 -152z m140 -185 c39 -132 49 -225 49 -423 0
-268 -22 -350 -121 -468 -55 -65 -93 -85 -155 -83 -94 2 -160 47 -199 135 -19
42 -23 68 -23 146 0 161 52 282 214 502 63 85 204 248 215 248 2 0 11 -26 20
-57z"/>
<path d="M4559 7353 c-39 -16 -251 -229 -367 -368 -102 -122 -212 -283 -260
-381 -38 -76 -83 -204 -117 -329 -25 -91 -31 -351 -11 -438 38 -161 109 -253
249 -322 253 -125 505 -93 677 85 82 85 124 156 166 278 76 222 69 462 -22
823 -29 117 -181 558 -216 626 -16 33 -57 44 -99 26z m-3 -345 c15 -40 49
-127 75 -193 28 -71 64 -195 89 -305 39 -167 43 -197 43 -310 -1 -197 -47
-338 -146 -447 -56 -61 -140 -108 -213 -119 -109 -16 -305 49 -359 120 -58 76
-86 236 -66 376 12 86 57 247 94 338 27 65 126 223 206 327 42 56 241 285 247
285 1 0 15 -33 30 -72z"/>
<path d="M1963 6303 c-189 -197 -286 -325 -382 -504 -65 -121 -106 -222 -138
-334 -34 -121 -43 -367 -19 -494 16 -85 58 -190 96 -239 52 -67 145 -151 194
-175 81 -40 140 -49 293 -45 123 3 143 6 186 28 81 41 168 143 232 272 76 154
88 215 89 458 1 173 -2 205 -22 285 -35 135 -231 713 -260 768 -35 65 -74 97
-120 97 -34 0 -46 -10 -149 -117z m200 -335 c121 -352 162 -492 172 -598 9
-92 -10 -303 -34 -372 -41 -120 -123 -238 -189 -272 -40 -21 -146 -34 -201
-25 -73 11 -142 51 -201 116 -89 97 -112 174 -111 374 1 211 61 388 213 633
72 116 254 336 278 336 4 0 37 -87 73 -192z"/>
<path d="M3522 4354 c-133 -127 -235 -267 -390 -537 -136 -237 -200 -418 -222
-629 -26 -249 6 -419 100 -538 103 -130 398 -213 584 -165 124 32 216 116 290
263 79 158 91 214 91 452 0 191 -2 213 -28 325 -35 146 -205 657 -248 742 -38
75 -65 102 -111 109 -29 5 -40 1 -66 -22z m113 -480 c78 -226 124 -394 145
-524 15 -89 7 -253 -16 -343 -19 -78 -88 -217 -125 -255 -58 -59 -230 -83
-338 -47 -68 22 -151 98 -182 167 -22 49 -24 65 -23 208 1 138 5 168 32 271
34 131 67 206 175 402 123 220 229 369 249 349 5 -5 42 -107 83 -228z"/>
</g>
</svg>
