<?xml version="1.0" standalone="no"?>
<!DOCTYPE svg PUBLIC "-//W3C//DTD SVG 20010904//EN"
 "http://www.w3.org/TR/2001/REC-SVG-20010904/DTD/svg10.dtd">
<svg version="1.0" xmlns="http://www.w3.org/2000/svg"
 width="2048.000000pt" height="2048.000000pt" viewBox="0 0 2048.000000 2048.000000"
 preserveAspectRatio="xMidYMid meet">

<g transform="translate(0.000000,2048.000000) scale(0.100000,-0.100000)"
fill="#000000" stroke="none">
<path d="M9755 19904 c-391 -44 -659 -144 -960 -359 -329 -235 -588 -616 -690
-1015 -61 -236 -56 178 -55 -5065 1 -2634 3 -4932 5 -5105 1 -173 -1 -322 -6
-331 -4 -9 -54 -40 -111 -70 -111 -58 -353 -216 -489 -320 -387 -294 -732
-678 -982 -1092 -89 -148 -236 -443 -292 -587 -462 -1181 -333 -2500 347
-3559 267 -413 629 -794 1028 -1077 581 -414 1275 -662 1995 -715 188 -14 555
-6 725 15 1148 143 2151 751 2788 1690 575 847 795 1867 622 2881 -85 500
-286 1011 -568 1450 -320 497 -779 941 -1281 1238 l-103 61 3 5195 3 5196 -22
102 c-81 376 -293 743 -574 993 -249 221 -558 377 -868 439 -173 34 -388 49
-515 35z m416 -647 c195 -51 343 -126 498 -253 209 -173 358 -412 433 -699
l23 -90 0 -3500 c0 -1925 -2 -4323 -5 -5328 l-5 -1829 170 -87 c336 -173 566
-335 814 -576 492 -476 815 -1065 945 -1719 51 -258 61 -360 61 -656 0 -281
-9 -394 -52 -615 -205 -1080 -939 -1990 -1953 -2423 -282 -120 -616 -206 -945
-244 -143 -16 -550 -16 -690 0 -536 63 -1014 233 -1450 517 -572 372 -1019
918 -1268 1550 -243 615 -295 1253 -157 1918 97 470 340 978 657 1372 169 210
445 469 658 617 191 133 417 257 590 323 66 26 131 53 144 62 l24 15 -4 5302
-4 5301 23 83 c44 160 127 343 213 467 68 98 237 261 342 330 143 92 299 154
462 181 126 21 356 12 476 -19z"/>
<path d="M9741 13280 c-329 -46 -594 -287 -684 -624 l-22 -81 3 -2696 c3
-2231 1 -2697 -10 -2706 -7 -6 -58 -25 -113 -43 -694 -228 -1286 -745 -1610
-1405 -127 -258 -211 -527 -257 -820 -30 -189 -32 -597 -5 -780 34 -223 104
-482 183 -673 209 -506 578 -955 1030 -1255 827 -548 1882 -613 2765 -171 428
213 810 552 1075 951 87 131 185 315 247 464 208 496 265 1063 161 1594 -146
749 -595 1400 -1254 1819 -77 49 -318 172 -426 217 l-61 26 -6 1338 c-4 736
-7 1944 -7 2684 0 1273 -1 1351 -19 1436 -84 407 -433 712 -836 730 -49 2
-119 0 -154 -5z"/>
<path d="M12325 18642 c-69 -7 -123 -33 -168 -81 -52 -55 -71 -105 -70 -181 1
-101 61 -189 156 -230 l52 -23 1040 -1 1040 -1 40 24 c60 36 85 61 110 111 33
66 39 120 21 182 -28 99 -102 168 -199 187 -47 10 -1937 22 -2022 13z"/>
<path d="M12270 17381 c-79 -26 -132 -75 -150 -139 -16 -58 -12 -94 15 -149
33 -66 87 -102 169 -114 33 -5 331 -9 662 -9 664 0 670 0 733 62 44 42 61 85
61 148 0 85 -46 153 -125 186 -35 14 -112 17 -690 20 -357 2 -661 0 -675 -5z"/>
<path d="M12284 16220 c-111 -35 -184 -133 -184 -246 0 -78 19 -126 68 -177
44 -46 75 -63 133 -76 26 -5 473 -11 1054 -12 1009 -4 1010 -4 1056 17 55 26
108 77 134 130 28 56 27 165 -2 220 -30 55 -103 119 -156 134 -54 15 -2055 25
-2103 10z"/>
<path d="M12235 14901 c-70 -31 -125 -113 -125 -186 0 -43 23 -98 56 -135 65
-72 48 -70 781 -70 567 0 659 2 691 15 76 32 122 102 122 184 0 65 -13 98 -58
144 -66 68 -58 67 -781 67 -603 0 -649 -2 -686 -19z"/>
<path d="M12302 13859 c-55 -10 -102 -40 -147 -92 -112 -130 -51 -346 114
-402 39 -13 185 -16 1050 -22 1151 -7 1084 -11 1170 75 75 75 98 170 66 263
-31 86 -100 148 -187 168 -52 12 -2003 21 -2066 10z"/>
<path d="M12243 12454 c-71 -26 -133 -113 -133 -189 0 -43 23 -98 56 -135 65
-72 42 -70 779 -73 l660 -2 41 22 c87 47 121 112 112 214 -6 63 -46 115 -114
149 l-49 25 -655 2 c-561 2 -661 0 -697 -13z"/>
<path d="M12325 11319 c-176 -22 -277 -204 -201 -364 29 -62 66 -97 131 -126
l50 -23 1040 0 c996 -1 1041 0 1075 18 96 51 144 128 145 231 0 86 -31 154
-94 202 -84 65 -47 62 -1121 65 -536 2 -998 0 -1025 -3z"/>
<path d="M12248 9990 c-50 -15 -90 -52 -116 -108 -20 -44 -23 -64 -18 -106 7
-64 47 -123 106 -156 l45 -25 675 0 c663 0 676 0 715 21 23 12 54 41 73 68 63
94 35 220 -63 281 l-48 30 -671 2 c-369 1 -683 -2 -698 -7z"/>
<path d="M12230 8899 c-204 -93 -212 -368 -13 -466 l58 -28 1023 -3 c694 -2
1035 1 1062 8 101 27 180 134 180 244 0 108 -54 192 -155 238 l-50 23 -1030 2
c-1020 3 -1030 3 -1075 -18z"/>
</g>
</svg>
