<?xml version="1.0" standalone="no"?>
<!DOCTYPE svg PUBLIC "-//W3C//DTD SVG 20010904//EN"
 "http://www.w3.org/TR/2001/REC-SVG-20010904/DTD/svg10.dtd">
<svg version="1.0" xmlns="http://www.w3.org/2000/svg"
 width="2048.000000pt" height="2048.000000pt" viewBox="0 0 2048.000000 2048.000000"
 preserveAspectRatio="xMidYMid meet">

<g transform="translate(0.000000,2048.000000) scale(0.100000,-0.100000)"
fill="#000000" stroke="none">
<path d="M8970 19383 c-91 -90 -453 -468 -625 -653 -1710 -1847 -3466 -4531
-4407 -6739 -150 -351 -382 -965 -451 -1191 -178 -584 -241 -834 -277 -1100
-11 -85 -28 -202 -36 -260 -40 -286 -24 -1174 31 -1745 16 -163 68 -496 85
-539 5 -15 23 -86 40 -159 326 -1414 1194 -2678 2410 -3509 294 -201 688 -415
1024 -557 546 -230 1094 -370 1716 -438 207 -22 920 -26 1120 -5 760 78 1399
259 2055 582 332 163 634 344 880 527 44 33 93 68 108 78 l27 18 0 -1271 c-1
-793 3 -1278 9 -1289 20 -38 52 -57 104 -61 29 -2 1026 -5 2217 -7 l2165 -3
52 23 c28 13 58 34 67 47 14 21 16 554 16 5410 1 4913 0 5389 -14 5417 -36 70
99 64 -1593 65 l-1526 1 -97 225 c-798 1860 -2068 3879 -3514 5584 -272 322
-518 595 -827 920 -389 409 -660 676 -688 676 -13 0 -42 -19 -71 -47z m310
-881 c1504 -1525 2836 -3367 3816 -5277 205 -401 554 -1153 554 -1196 0 -4
-204 -9 -452 -11 -354 -2 -458 -6 -476 -16 -56 -32 -52 234 -52 -3905 l0
-3825 -62 -54 c-502 -436 -1101 -784 -1733 -1010 -399 -142 -853 -242 -1315
-290 -168 -17 -820 -17 -1000 0 -1555 151 -2967 957 -3877 2213 -539 746 -875
1601 -987 2519 -27 224 -32 285 -47 685 -22 601 -11 844 61 1365 36 256 75
422 165 705 37 116 91 285 121 377 227 716 607 1592 1070 2470 820 1556 1881
3136 2958 4408 287 338 624 707 853 933 106 104 135 127 159 127 25 0 61 -32
244 -218z m7585 -7325 c3 -199 5 -2450 3 -5002 l-3 -4640 -1857 -3 -1857 -2
-6 52 c-3 29 -5 136 -3 238 l3 185 355 7 c1129 24 1072 22 1110 44 124 72 101
244 -38 283 -17 5 -294 3 -653 -5 -343 -7 -659 -13 -701 -14 l-78 0 0 481 0
481 328 -3 c292 -3 330 -1 359 14 82 43 82 163 0 212 -30 18 -56 20 -359 23
l-328 4 0 434 0 434 696 0 c621 0 700 2 730 16 49 23 77 68 82 128 4 57 -18
101 -71 140 -28 21 -38 21 -730 26 l-702 5 0 470 0 470 320 5 c345 5 361 8
399 62 20 28 20 90 1 128 -30 58 -42 60 -400 60 l-325 0 0 449 0 449 143 6
c78 3 383 10 677 16 295 6 552 15 572 20 45 13 95 68 104 116 15 79 -44 165
-123 180 -20 4 -287 2 -592 -5 -306 -6 -607 -11 -668 -11 l-113 0 0 445 0 445
208 0 c114 0 258 3 320 7 135 7 169 23 190 91 12 37 12 46 -5 79 -10 20 -31
46 -46 57 -28 20 -38 21 -348 17 l-319 -3 0 456 0 456 36 0 c137 0 1307 31
1341 36 149 19 182 223 48 288 -39 20 -50 20 -725 4 -377 -8 -688 -13 -692
-11 -5 2 -8 211 -8 464 l0 459 310 0 c345 0 364 3 400 62 25 42 25 84 0 126
-36 59 -55 62 -400 62 l-310 0 0 425 0 425 23 5 c40 9 290 11 2003 12 l1692 2
7 -362z"/>
<path d="M5005 10237 c-102 -49 -164 -157 -150 -260 27 -208 264 -302 418
-167 108 95 121 239 31 357 -65 85 -201 117 -299 70z"/>
<path d="M4929 9022 c-80 -41 -108 -94 -148 -279 -135 -623 -127 -1226 25
-1828 164 -653 511 -1271 969 -1730 235 -236 488 -423 760 -562 243 -124 564
-230 666 -221 102 10 175 95 173 203 -1 65 -12 94 -53 138 -36 39 -60 51 -173
80 -1048 279 -1886 1411 -2007 2712 -36 386 -12 806 65 1140 43 186 36 250
-33 319 -62 64 -156 74 -244 28z"/>
</g>
</svg>
